<svg width="120" viewBox="0 0 218 75" fill="none" xmlns="http://www.w3.org/2000/svg">
<rect y="7" width="81" height="68" rx="10" fill="#2D2D73"/>
<path d="M29.5938 54.0078C29.5938 54.4766 29.5091 54.9193 29.3398 55.3359C29.1706 55.7396 28.9362 56.0911 28.6367 56.3906C28.3372 56.6901 27.9857 56.9245 27.582 57.0938C27.1784 57.276 26.7422 57.3672 26.2734 57.3672C25.8177 57.3672 25.3815 57.276 24.9648 57.0938C24.5612 56.9245 24.2031 56.6901 23.8906 56.3906C23.5911 56.0911 23.3503 55.7396 23.168 55.3359C22.9987 54.9193 22.9141 54.4766 22.9141 54.0078C22.9141 53.5521 22.9987 53.1224 23.168 52.7188C23.3503 52.3151 23.5911 51.9635 23.8906 51.6641C24.2031 51.3646 24.5612 51.1302 24.9648 50.9609C25.3815 50.7786 25.8177 50.6875 26.2734 50.6875C26.7422 50.6875 27.1784 50.7786 27.582 50.9609C27.9857 51.1302 28.3372 51.3646 28.6367 51.6641C28.9362 51.9635 29.1706 52.3151 29.3398 52.7188C29.5091 53.1224 29.5938 53.5521 29.5938 54.0078ZM39.75 33.5977V44.8086H45.3555C46.1237 44.8086 46.8464 44.6654 47.5234 44.3789C48.2005 44.0794 48.793 43.6758 49.3008 43.168C49.8086 42.6602 50.2057 42.0677 50.4922 41.3906C50.7917 40.7005 50.9414 39.9714 50.9414 39.2031C50.9414 38.4349 50.7917 37.7122 50.4922 37.0352C50.2057 36.3451 49.8086 35.7461 49.3008 35.2383C48.793 34.7305 48.2005 34.3333 47.5234 34.0469C46.8464 33.7474 46.1237 33.5977 45.3555 33.5977H39.75ZM39.75 56H34.1445V27.9922H45.3555C46.3841 27.9922 47.3737 28.1289 48.3242 28.4023C49.2747 28.6628 50.1602 29.0404 50.9805 29.5352C51.8138 30.0169 52.569 30.6029 53.2461 31.293C53.9362 31.9701 54.5221 32.7253 55.0039 33.5586C55.4987 34.3919 55.8763 35.2839 56.1367 36.2344C56.4102 37.1849 56.5469 38.1745 56.5469 39.2031C56.5469 40.1667 56.4232 41.1042 56.1758 42.0156C55.9414 42.9271 55.5964 43.793 55.1406 44.6133C54.6979 45.4336 54.151 46.1888 53.5 46.8789C52.849 47.569 52.1198 48.168 51.3125 48.6758L54.418 56H48.4609L46.0195 50.3555L39.75 50.3945V56ZM79.4375 56H60.2383V27.9922H79.4375V33.5977H65.8438V39.2031H75.043V44.8086H65.8438V50.3945H79.4375V56ZM105.766 56H99.7695L88.9688 37.5625V56H83.3633V27.9922H89.3594L100.16 46.4492V27.9922H105.766V56ZM133.383 56H127.387L116.586 37.5625V56H110.98V27.9922H116.977L127.777 46.4492V27.9922H133.383V56ZM155.082 44.8086V39.2031C155.082 38.4349 154.932 37.7122 154.633 37.0352C154.346 36.3451 153.949 35.7461 153.441 35.2383C152.934 34.7305 152.335 34.3333 151.645 34.0469C150.967 33.7474 150.245 33.5977 149.477 33.5977C148.708 33.5977 147.979 33.7474 147.289 34.0469C146.612 34.3333 146.02 34.7305 145.512 35.2383C145.004 35.7461 144.6 36.3451 144.301 37.0352C144.014 37.7122 143.871 38.4349 143.871 39.2031V44.8086H155.082ZM160.688 56H155.082V50.3945H143.871V56H138.285V39.2031C138.285 37.6536 138.578 36.2018 139.164 34.8477C139.75 33.4805 140.544 32.2891 141.547 31.2734C142.562 30.2578 143.747 29.457 145.102 28.8711C146.469 28.2852 147.927 27.9922 149.477 27.9922C151.026 27.9922 152.478 28.2852 153.832 28.8711C155.199 29.457 156.391 30.2578 157.406 31.2734C158.422 32.2891 159.223 33.4805 159.809 34.8477C160.395 36.2018 160.688 37.6536 160.688 39.2031V56ZM187.953 56H181.957L171.156 37.5625V56H165.551V27.9922H171.547L182.348 46.4492V27.9922H187.953V56Z" fill="#FDFDFD"/>
<path d="M197.95 64.5C198.583 64.0667 199.2 63.5333 199.8 62.9C200.4 62.2667 200.933 61.55 201.4 60.75C201.867 59.9833 202.25 59.1667 202.55 58.3C202.85 57.4667 203 56.6167 203 55.75V49.7C203 47.7667 203.367 46.1667 204.1 44.9C204.867 43.6 206.133 42.75 207.9 42.35V42C206.133 41.6 204.867 40.7667 204.1 39.5C203.367 38.2 203 36.6 203 34.7V28.6C203 27.7333 202.85 26.8833 202.55 26.05C202.25 25.1833 201.867 24.3667 201.4 23.6C200.933 22.8 200.4 22.0833 199.8 21.45C199.2 20.8167 198.583 20.2833 197.95 19.85H201.15C201.85 20.1833 202.533 20.6667 203.2 21.3C203.867 21.9 204.467 22.6 205 23.4C205.567 24.2 206 25.0833 206.3 26.05C206.633 26.9833 206.8 27.9667 206.8 29V34.8C206.8 35.7333 206.933 36.6833 207.2 37.65C207.467 38.6167 207.95 39.4333 208.65 40.1C209.383 40.7333 210.45 41.05 211.85 41.05V43.3C210.45 43.3 209.383 43.6333 208.65 44.3C207.95 44.9333 207.467 45.7333 207.2 46.7C206.933 47.6667 206.8 48.6167 206.8 49.55V55.35C206.8 56.4167 206.633 57.4167 206.3 58.35C206 59.3167 205.567 60.1833 205 60.95C204.467 61.75 203.867 62.45 203.2 63.05C202.533 63.6833 201.85 64.1667 201.15 64.5H197.95Z" fill="white"/>
<path d="M17.05 64.5C16.3833 64.1667 15.7 63.6833 15 63.05C14.3333 62.45 13.7167 61.75 13.15 60.95C12.6167 60.1833 12.1833 59.3167 11.85 58.35C11.55 57.4167 11.4 56.4167 11.4 55.35V49.55C11.4 48.6167 11.2667 47.6667 11 46.7C10.7333 45.7333 10.2333 44.9333 9.5 44.3C8.8 43.6333 7.75 43.3 6.35 43.3V41.05C7.75 41.05 8.8 40.7333 9.5 40.1C10.2333 39.4333 10.7333 38.6167 11 37.65C11.2667 36.6833 11.4 35.7333 11.4 34.8V29C11.4 27.9667 11.55 26.9833 11.85 26.05C12.1833 25.0833 12.6167 24.2 13.15 23.4C13.7167 22.6 14.3333 21.9 15 21.3C15.7 20.6667 16.3833 20.1833 17.05 19.85H20.2C19.6 20.2833 19 20.8167 18.4 21.45C17.8 22.0833 17.25 22.8 16.75 23.6C16.2833 24.3667 15.9 25.1833 15.6 26.05C15.3333 26.8833 15.2 27.7333 15.2 28.6V34.7C15.2 36.6 14.8333 38.2 14.1 39.5C13.3667 40.7667 12.1 41.6 10.3 42V42.35C12.1 42.75 13.3667 43.6 14.1 44.9C14.8333 46.1667 15.2 47.7667 15.2 49.7V55.75C15.2 56.6167 15.3333 57.4667 15.6 58.3C15.9 59.1667 16.2833 59.9833 16.75 60.75C17.25 61.55 17.8 62.2667 18.4 62.9C19 63.5333 19.6 64.0667 20.2 64.5H17.05Z" fill="white"/>
</svg>
