<svg width="514" height="379" viewBox="0 0 514 379" fill="none" xmlns="http://www.w3.org/2000/svg">
<g clip-path="url(#clip0_336_2)">
<path d="M463.376 196.937C463.443 243.762 442.05 288.787 403.694 322.545C401.382 324.593 399.007 326.592 396.57 328.541C392.857 331.53 389.019 334.402 385.056 337.159C347.987 362.998 301.709 377.518 253.69 378.376C252.09 378.407 250.484 378.422 248.872 378.422C210.575 378.422 162.407 361.116 118.695 337.159C115.079 335.177 111.494 333.149 107.942 331.075C106.282 330.115 104.63 329.141 102.985 328.153C86.1262 318.081 70.1235 307.021 55.0952 295.053C45.2557 287.24 36.0287 278.893 27.4732 270.064C-6.11395 235.012 -13.5221 203.429 34.3621 196.937C40.0314 196.171 45.5337 195.352 50.8689 194.48C58.5971 193.223 65.9931 191.866 73.0571 190.409C82.5723 188.452 91.512 186.331 99.8761 184.044C102.69 183.278 105.439 182.496 108.123 181.699C147.815 169.905 174.38 154.524 192.463 137.836C195.53 135.011 198.357 132.153 200.945 129.26C204.905 124.856 208.502 120.228 211.711 115.407C216.139 108.708 219.858 101.691 222.826 94.438L222.989 94.0396C237.376 58.9266 232.999 26.3575 248.872 15.4568C316.722 -31.1442 401.194 35.22 440.843 113.481C442.842 117.424 444.722 121.392 446.482 125.383C447.273 127.165 448.036 128.952 448.771 130.741C450.703 135.405 452.456 140.08 454.029 144.768C454.633 146.556 455.209 148.342 455.756 150.126C456.342 152.052 456.903 153.973 457.423 155.893C461.281 169.956 463.376 183.824 463.376 196.937Z" fill="#282A36"/>
<path d="M253.69 378.376C252.09 378.407 250.484 378.422 248.872 378.422C210.575 378.422 162.407 361.116 118.695 337.159C115.079 335.177 111.494 333.149 107.942 331.075L111.058 315.036L205.371 304.441L252.706 335.064L253.69 378.376Z" fill="#2F2E41"/>
<path d="M258.23 91.9708H244.79C244.374 91.971 243.975 92.111 243.681 92.36C243.386 92.609 243.221 92.9467 243.221 93.2989V104.675C243.221 104.849 243.262 105.021 243.341 105.182C243.42 105.343 243.535 105.489 243.681 105.611C243.827 105.734 244 105.832 244.19 105.898C244.381 105.964 244.585 105.998 244.79 105.998H258.23C258.645 105.998 259.044 105.859 259.338 105.611C259.632 105.363 259.798 105.026 259.8 104.675V93.2989C259.799 92.947 259.633 92.6097 259.339 92.3609C259.045 92.1121 258.646 91.9719 258.23 91.9708V91.9708Z" fill="white"/>
<path d="M258.23 111.356H244.79C244.374 111.356 243.975 111.496 243.681 111.745C243.386 111.994 243.221 112.332 243.221 112.684V124.06C243.221 124.234 243.262 124.406 243.341 124.567C243.42 124.728 243.535 124.874 243.681 124.997C243.827 125.12 244 125.217 244.19 125.283C244.381 125.349 244.585 125.383 244.79 125.383H258.23C258.645 125.383 259.044 125.244 259.338 124.996C259.632 124.748 259.798 124.411 259.8 124.06V112.684C259.799 112.332 259.633 111.995 259.339 111.746C259.045 111.497 258.646 111.357 258.23 111.356Z" fill="#E6E6E6"/>
<path d="M258.23 130.741H244.79C244.374 130.741 243.975 130.881 243.681 131.13C243.386 131.379 243.221 131.717 243.221 132.069V143.44C243.22 143.614 243.261 143.787 243.339 143.949C243.418 144.11 243.534 144.256 243.68 144.38C243.825 144.503 243.999 144.601 244.189 144.668C244.38 144.734 244.584 144.768 244.79 144.768H258.23C258.646 144.768 259.046 144.628 259.34 144.379C259.634 144.13 259.8 143.792 259.8 143.44V132.069C259.799 131.717 259.633 131.38 259.339 131.131C259.045 130.882 258.646 130.742 258.23 130.741V130.741Z" fill="#E6E6E6"/>
<path d="M259.776 151.219C259.709 150.914 259.518 150.637 259.236 150.437C258.953 150.238 258.598 150.128 258.23 150.126H244.79C244.374 150.126 243.975 150.266 243.681 150.515C243.386 150.765 243.221 151.102 243.221 151.454V162.825C243.22 163 243.261 163.172 243.339 163.334C243.418 163.495 243.534 163.642 243.68 163.765C243.825 163.888 243.999 163.986 244.189 164.053C244.38 164.119 244.584 164.153 244.79 164.153H258.23C258.646 164.153 259.046 164.013 259.34 163.764C259.634 163.515 259.8 163.177 259.8 162.825V151.454C259.801 151.376 259.793 151.297 259.776 151.219V151.219Z" fill="#E6E6E6"/>
<path d="M258.84 169.614C258.647 169.546 258.439 169.511 258.23 169.512H244.79C244.584 169.511 244.38 169.545 244.189 169.612C243.999 169.679 243.825 169.776 243.68 169.9C243.534 170.023 243.418 170.17 243.339 170.331C243.261 170.492 243.22 170.665 243.221 170.84V182.21C243.22 182.385 243.26 182.558 243.338 182.719C243.417 182.881 243.532 183.028 243.678 183.151C243.824 183.275 243.998 183.372 244.189 183.439C244.379 183.505 244.584 183.539 244.79 183.538H258.23C258.646 183.538 259.046 183.398 259.34 183.149C259.634 182.9 259.8 182.562 259.8 182.21V170.84C259.799 170.578 259.708 170.323 259.537 170.105C259.367 169.887 259.124 169.716 258.84 169.614Z" fill="#E6E6E6"/>
<path d="M286.462 91.9708H273.022C272.606 91.971 272.207 92.111 271.913 92.36C271.618 92.609 271.453 92.9467 271.453 93.2989V104.675C271.453 104.849 271.494 105.021 271.573 105.182C271.652 105.343 271.767 105.489 271.913 105.611C272.059 105.734 272.232 105.832 272.422 105.898C272.613 105.964 272.816 105.998 273.022 105.998H286.462C286.877 105.998 287.276 105.859 287.57 105.611C287.864 105.363 288.03 105.026 288.032 104.675V93.2989C288.031 92.947 287.865 92.6097 287.571 92.3609C287.276 92.1121 286.878 91.9719 286.462 91.9708V91.9708Z" fill="#E6E6E6"/>
<path d="M286.462 111.356H273.022C272.606 111.356 272.207 111.496 271.912 111.745C271.618 111.994 271.453 112.332 271.453 112.684V124.06C271.453 124.234 271.494 124.406 271.573 124.567C271.652 124.728 271.767 124.874 271.913 124.997C272.059 125.12 272.232 125.217 272.422 125.283C272.613 125.349 272.816 125.383 273.022 125.383H286.462C286.877 125.383 287.276 125.244 287.57 124.996C287.864 124.748 288.03 124.411 288.032 124.06V112.684C288.031 112.332 287.865 111.995 287.571 111.746C287.276 111.497 286.878 111.357 286.462 111.356Z" fill="#F4E04D"/>
<path d="M286.462 130.741H273.022C272.606 130.741 272.207 130.881 271.912 131.13C271.618 131.379 271.453 131.717 271.453 132.069V143.44C271.452 143.614 271.492 143.787 271.571 143.949C271.65 144.11 271.766 144.256 271.911 144.38C272.057 144.503 272.23 144.601 272.421 144.668C272.612 144.734 272.816 144.768 273.022 144.768H286.462C286.878 144.768 287.277 144.628 287.572 144.379C287.866 144.13 288.032 143.792 288.032 143.44V132.069C288.031 131.717 287.865 131.38 287.571 131.131C287.276 130.882 286.878 130.742 286.462 130.741V130.741Z" fill="#F4E04D"/>
<path d="M286.462 150.126H273.022C272.693 150.126 272.372 150.214 272.106 150.378C271.839 150.541 271.64 150.771 271.537 151.036C271.481 151.17 271.453 151.312 271.453 151.454V162.825C271.452 163 271.492 163.172 271.571 163.334C271.65 163.495 271.765 163.641 271.911 163.765C272.057 163.888 272.23 163.986 272.421 164.053C272.612 164.119 272.816 164.153 273.022 164.153H286.462C286.878 164.153 287.277 164.013 287.572 163.764C287.866 163.515 288.032 163.177 288.032 162.825V151.454C288.031 151.102 287.865 150.765 287.571 150.516C287.276 150.268 286.878 150.127 286.462 150.126V150.126Z" fill="#F4E04D"/>
<path d="M286.462 169.512H273.022C272.816 169.511 272.612 169.545 272.421 169.612C272.23 169.679 272.057 169.776 271.911 169.9C271.766 170.023 271.65 170.17 271.571 170.331C271.492 170.492 271.452 170.665 271.453 170.84V182.21C271.452 182.385 271.492 182.558 271.571 182.719C271.65 182.88 271.766 183.027 271.911 183.15C272.057 183.274 272.23 183.371 272.421 183.438C272.612 183.505 272.816 183.539 273.022 183.538H286.462C286.878 183.538 287.277 183.398 287.572 183.149C287.866 182.9 288.032 182.562 288.032 182.21V170.84C288.032 170.487 287.866 170.15 287.572 169.901C287.277 169.652 286.878 169.512 286.462 169.512V169.512Z" fill="#E6E6E6"/>
<path d="M314.694 91.9708H301.254C300.838 91.971 300.439 92.111 300.144 92.36C299.85 92.609 299.685 92.9467 299.684 93.2989V104.675C299.685 104.849 299.725 105.021 299.804 105.182C299.883 105.343 299.999 105.489 300.145 105.611C300.291 105.734 300.464 105.832 300.654 105.898C300.844 105.964 301.048 105.998 301.254 105.998H314.694C315.109 105.998 315.508 105.859 315.802 105.611C316.096 105.363 316.262 105.026 316.264 104.675V93.2989C316.262 92.947 316.097 92.6097 315.802 92.3609C315.508 92.1121 315.11 91.9719 314.694 91.9708V91.9708Z" fill="#F4E04D"/>
<path d="M314.694 111.356H301.254C300.838 111.356 300.439 111.496 300.144 111.745C299.85 111.994 299.685 112.332 299.684 112.684V124.06C299.685 124.234 299.725 124.406 299.804 124.567C299.883 124.728 299.999 124.874 300.145 124.997C300.291 125.12 300.464 125.217 300.654 125.283C300.844 125.349 301.048 125.383 301.254 125.383H314.694C315.109 125.383 315.508 125.244 315.802 124.996C316.096 124.748 316.262 124.411 316.264 124.06V112.684C316.262 112.332 316.097 111.995 315.802 111.746C315.508 111.497 315.11 111.357 314.694 111.356Z" fill="#F4E04D"/>
<path d="M314.694 130.741H301.254C300.838 130.741 300.439 130.881 300.144 131.13C299.85 131.379 299.685 131.717 299.684 132.069V143.44C299.684 143.614 299.724 143.787 299.803 143.949C299.882 144.11 299.997 144.256 300.143 144.38C300.289 144.503 300.462 144.601 300.653 144.668C300.843 144.734 301.048 144.768 301.254 144.768H314.694C315.11 144.768 315.509 144.628 315.804 144.379C316.098 144.13 316.263 143.792 316.264 143.44V132.069C316.262 131.717 316.097 131.38 315.802 131.131C315.508 130.882 315.11 130.742 314.694 130.741V130.741Z" fill="#E6E6E6"/>
<path d="M314.694 150.126H301.254C300.838 150.126 300.439 150.266 300.144 150.515C299.85 150.765 299.685 151.102 299.684 151.454V162.825C299.684 163 299.724 163.172 299.803 163.334C299.882 163.495 299.997 163.642 300.143 163.765C300.289 163.888 300.462 163.986 300.653 164.053C300.843 164.119 301.048 164.153 301.254 164.153H314.694C315.11 164.153 315.509 164.013 315.804 163.764C316.098 163.515 316.263 163.177 316.264 162.825V151.454C316.262 151.103 316.097 150.765 315.802 150.516C315.508 150.268 315.11 150.127 314.694 150.126V150.126Z" fill="#F4E04D"/>
<path d="M314.694 169.512H301.254C301.048 169.511 300.843 169.545 300.653 169.612C300.462 169.679 300.289 169.776 300.143 169.9C299.997 170.023 299.882 170.17 299.803 170.331C299.724 170.492 299.684 170.665 299.684 170.84V182.21C299.684 182.385 299.724 182.558 299.803 182.719C299.882 182.88 299.997 183.027 300.143 183.15C300.289 183.274 300.462 183.371 300.653 183.438C300.843 183.505 301.048 183.539 301.254 183.538H314.694C315.11 183.538 315.509 183.398 315.804 183.149C316.098 182.9 316.263 182.562 316.264 182.21V170.84C316.263 170.487 316.098 170.15 315.804 169.901C315.509 169.652 315.11 169.512 314.694 169.512V169.512Z" fill="#F4E04D"/>
<path d="M342.926 91.9708H329.486C329.07 91.971 328.67 92.111 328.376 92.36C328.082 92.609 327.916 92.9467 327.916 93.2989V104.675C327.916 104.849 327.957 105.021 328.036 105.182C328.115 105.343 328.231 105.489 328.377 105.611C328.522 105.734 328.695 105.832 328.886 105.898C329.076 105.964 329.28 105.998 329.486 105.998H342.926C343.341 105.998 343.739 105.859 344.034 105.611C344.328 105.363 344.494 105.026 344.495 104.675V93.2989C344.494 92.947 344.328 92.6097 344.034 92.3609C343.74 92.1121 343.341 91.9719 342.926 91.9708V91.9708Z" fill="#F4E04D"/>
<path d="M342.926 111.356H329.486C329.07 111.356 328.67 111.496 328.376 111.745C328.082 111.994 327.916 112.332 327.916 112.684V124.06C327.916 124.234 327.957 124.406 328.036 124.567C328.115 124.728 328.231 124.874 328.377 124.997C328.522 125.12 328.695 125.217 328.886 125.283C329.076 125.349 329.28 125.383 329.486 125.383H342.926C343.341 125.383 343.739 125.244 344.034 124.996C344.328 124.748 344.494 124.411 344.495 124.06V112.684C344.494 112.332 344.328 111.995 344.034 111.746C343.74 111.497 343.341 111.357 342.926 111.356V111.356Z" fill="white"/>
<path d="M342.926 130.741H329.486C329.07 130.741 328.67 130.881 328.376 131.13C328.082 131.379 327.916 131.717 327.916 132.069V143.44C327.916 143.614 327.956 143.787 328.035 143.949C328.113 144.11 328.229 144.256 328.375 144.38C328.521 144.503 328.694 144.601 328.885 144.668C329.075 144.734 329.28 144.768 329.486 144.768H342.926C343.342 144.768 343.741 144.628 344.035 144.379C344.33 144.13 344.495 143.792 344.495 143.44V132.069C344.494 131.717 344.328 131.38 344.034 131.131C343.74 130.882 343.342 130.742 342.926 130.741V130.741Z" fill="white"/>
<path d="M342.926 150.126H329.486C329.07 150.126 328.67 150.266 328.376 150.515C328.082 150.765 327.916 151.102 327.916 151.454V162.825C327.916 163 327.956 163.172 328.035 163.334C328.113 163.495 328.229 163.642 328.375 163.765C328.521 163.888 328.694 163.986 328.885 164.053C329.075 164.119 329.28 164.153 329.486 164.153H342.926C343.342 164.153 343.741 164.013 344.035 163.764C344.33 163.515 344.495 163.177 344.495 162.825V151.454C344.494 151.103 344.328 150.765 344.034 150.516C343.74 150.268 343.342 150.127 342.926 150.126V150.126Z" fill="#E6E6E6"/>
<path d="M342.926 169.512H329.486C329.28 169.511 329.075 169.545 328.885 169.612C328.694 169.679 328.521 169.776 328.375 169.9C328.229 170.023 328.113 170.17 328.035 170.331C327.956 170.492 327.916 170.665 327.916 170.84V182.21C327.916 182.385 327.956 182.558 328.035 182.719C328.113 182.88 328.229 183.027 328.375 183.15C328.521 183.274 328.694 183.371 328.885 183.438C329.075 183.505 329.28 183.539 329.486 183.538H342.926C343.342 183.538 343.741 183.398 344.035 183.149C344.33 182.9 344.495 182.562 344.495 182.21V170.84C344.495 170.487 344.33 170.15 344.035 169.901C343.741 169.652 343.342 169.512 342.926 169.512V169.512Z" fill="#F4E04D"/>
<path d="M371.157 91.9708H357.712C357.296 91.9721 356.898 92.1125 356.605 92.3615C356.312 92.6104 356.148 92.9475 356.148 93.2989V104.675C356.148 105.025 356.313 105.362 356.606 105.61C356.899 105.858 357.297 105.998 357.712 105.998H371.157C371.573 105.998 371.971 105.859 372.265 105.611C372.56 105.363 372.726 105.026 372.727 104.675V93.2989C372.726 92.947 372.56 92.6097 372.266 92.3609C371.972 92.1121 371.573 91.9719 371.157 91.9708Z" fill="white"/>
<path d="M371.157 111.356H357.712C357.296 111.357 356.898 111.498 356.605 111.747C356.312 111.996 356.148 112.333 356.148 112.684V124.06C356.148 124.411 356.313 124.747 356.606 124.995C356.899 125.243 357.297 125.383 357.712 125.383H371.157C371.573 125.383 371.971 125.244 372.265 124.996C372.56 124.748 372.726 124.411 372.727 124.06V112.684C372.726 112.332 372.56 111.995 372.266 111.746C371.972 111.497 371.573 111.357 371.157 111.356V111.356Z" fill="white"/>
<path d="M371.157 130.741H357.712C357.296 130.742 356.898 130.883 356.605 131.132C356.312 131.381 356.148 131.718 356.148 132.069V143.44C356.147 143.614 356.187 143.786 356.266 143.948C356.344 144.109 356.459 144.255 356.604 144.378C356.749 144.502 356.922 144.6 357.112 144.666C357.302 144.733 357.506 144.768 357.712 144.768H371.157C371.574 144.768 371.973 144.628 372.267 144.379C372.561 144.13 372.727 143.792 372.727 143.44V132.069C372.726 131.717 372.56 131.38 372.266 131.131C371.972 130.882 371.573 130.742 371.157 130.741V130.741Z" fill="white"/>
<path d="M371.157 150.126H357.712C357.296 150.128 356.898 150.268 356.605 150.517C356.312 150.766 356.148 151.103 356.148 151.454V162.825C356.147 162.999 356.187 163.172 356.266 163.333C356.344 163.494 356.459 163.64 356.604 163.763C356.749 163.887 356.922 163.985 357.112 164.052C357.302 164.118 357.506 164.153 357.712 164.153H371.157C371.574 164.153 371.973 164.013 372.267 163.764C372.561 163.515 372.727 163.177 372.727 162.825V151.454C372.726 151.103 372.56 150.765 372.266 150.516C371.972 150.268 371.573 150.127 371.157 150.126V150.126Z" fill="#F4E04D"/>
<path d="M371.157 169.512H357.712C357.506 169.512 357.302 169.546 357.112 169.613C356.922 169.68 356.749 169.778 356.604 169.901C356.459 170.025 356.344 170.171 356.266 170.332C356.187 170.493 356.147 170.666 356.148 170.84V182.21C356.147 182.384 356.187 182.557 356.266 182.718C356.344 182.879 356.459 183.025 356.604 183.149C356.749 183.272 356.922 183.37 357.112 183.437C357.302 183.504 357.506 183.538 357.712 183.538H371.157C371.574 183.538 371.973 183.398 372.267 183.149C372.561 182.9 372.727 182.562 372.727 182.21V170.84C372.727 170.487 372.561 170.15 372.267 169.901C371.973 169.652 371.574 169.512 371.157 169.512V169.512Z" fill="#E6E6E6"/>
<path d="M399.389 91.9708H385.943C385.528 91.9721 385.13 92.1125 384.837 92.3615C384.544 92.6104 384.379 92.9475 384.38 93.2989V104.675C384.38 105.025 384.544 105.362 384.838 105.61C385.131 105.858 385.529 105.998 385.943 105.998H399.389C399.804 105.998 400.203 105.859 400.497 105.611C400.791 105.363 400.957 105.026 400.959 104.675V93.2989C400.958 92.947 400.792 92.6098 400.498 92.3609C400.204 92.1121 399.805 91.9719 399.389 91.9708V91.9708Z" fill="white"/>
<path d="M399.389 111.356H385.943C385.528 111.357 385.13 111.498 384.837 111.747C384.544 111.996 384.379 112.333 384.38 112.684V124.06C384.38 124.411 384.544 124.747 384.838 124.995C385.131 125.243 385.529 125.383 385.943 125.383H399.389C399.804 125.383 400.203 125.244 400.497 124.996C400.791 124.748 400.957 124.411 400.959 124.06V112.684C400.958 112.332 400.792 111.995 400.498 111.746C400.204 111.497 399.805 111.357 399.389 111.356V111.356Z" fill="white"/>
<path d="M399.389 130.741H385.943C385.528 130.742 385.13 130.883 384.837 131.132C384.544 131.381 384.379 131.718 384.38 132.069V143.44C384.379 143.614 384.419 143.786 384.497 143.948C384.576 144.109 384.691 144.255 384.836 144.378C384.981 144.502 385.154 144.6 385.344 144.666C385.534 144.733 385.738 144.768 385.943 144.768H399.389C399.805 144.768 400.205 144.628 400.499 144.379C400.793 144.13 400.959 143.792 400.959 143.44V132.069C400.958 131.717 400.792 131.38 400.498 131.131C400.204 130.882 399.805 130.742 399.389 130.741V130.741Z" fill="#F4E04D"/>
<path d="M399.389 150.126H385.943C385.528 150.128 385.13 150.268 384.837 150.517C384.544 150.766 384.379 151.103 384.38 151.454V162.825C384.379 162.999 384.419 163.172 384.497 163.333C384.576 163.494 384.691 163.64 384.836 163.763C384.981 163.887 385.154 163.985 385.344 164.052C385.534 164.118 385.738 164.153 385.943 164.153H399.389C399.805 164.153 400.205 164.013 400.499 163.764C400.793 163.515 400.959 163.177 400.959 162.825V151.454C400.958 151.103 400.792 150.765 400.498 150.516C400.204 150.268 399.805 150.127 399.389 150.126V150.126Z" fill="#E6E6E6"/>
<path d="M399.389 169.512H385.943C385.738 169.512 385.534 169.546 385.344 169.613C385.154 169.68 384.981 169.778 384.836 169.901C384.691 170.025 384.576 170.171 384.497 170.332C384.419 170.493 384.379 170.666 384.38 170.84V182.21C384.379 182.384 384.419 182.557 384.497 182.718C384.576 182.879 384.691 183.025 384.836 183.149C384.981 183.272 385.154 183.37 385.344 183.437C385.534 183.504 385.738 183.538 385.943 183.538H399.389C399.805 183.538 400.205 183.398 400.499 183.149C400.793 182.9 400.959 182.562 400.959 182.21V170.84C400.959 170.487 400.793 170.15 400.499 169.901C400.205 169.652 399.805 169.512 399.389 169.512Z" fill="white"/>
<path d="M427.621 91.9708H414.175C413.76 91.9721 413.362 92.1125 413.069 92.3615C412.776 92.6104 412.611 92.9475 412.611 93.2989V104.675C412.611 105.025 412.776 105.362 413.07 105.61C413.363 105.858 413.76 105.998 414.175 105.998H427.621C428.036 105.998 428.435 105.859 428.729 105.611C429.023 105.363 429.189 105.026 429.191 104.675V93.2989C429.189 92.947 429.024 92.6098 428.73 92.3609C428.435 92.1121 428.037 91.9719 427.621 91.9708V91.9708Z" fill="#F4E04D"/>
<path d="M427.621 111.356H414.175C413.76 111.357 413.362 111.498 413.069 111.747C412.776 111.996 412.611 112.333 412.611 112.684V124.06C412.611 124.411 412.776 124.747 413.07 124.995C413.363 125.243 413.76 125.383 414.175 125.383H427.621C428.036 125.383 428.435 125.244 428.729 124.996C429.023 124.748 429.189 124.411 429.191 124.06V112.684C429.189 112.332 429.024 111.995 428.73 111.746C428.435 111.497 428.037 111.357 427.621 111.356Z" fill="#F4E04D"/>
<path d="M427.621 130.741H414.175C413.76 130.742 413.362 130.883 413.069 131.132C412.776 131.381 412.611 131.718 412.611 132.069V143.44C412.611 143.614 412.651 143.786 412.729 143.948C412.807 144.109 412.923 144.255 413.068 144.378C413.213 144.502 413.386 144.6 413.576 144.666C413.766 144.733 413.969 144.768 414.175 144.768H427.621C428.037 144.768 428.436 144.628 428.731 144.379C429.025 144.13 429.19 143.792 429.191 143.44V132.069C429.189 131.717 429.024 131.38 428.73 131.131C428.435 130.882 428.037 130.742 427.621 130.741V130.741Z" fill="#E6E6E6"/>
<path d="M427.621 150.126H414.175C413.76 150.128 413.362 150.268 413.069 150.517C412.776 150.766 412.611 151.103 412.611 151.454V162.825C412.611 162.999 412.651 163.172 412.729 163.333C412.807 163.494 412.923 163.64 413.068 163.763C413.213 163.887 413.386 163.985 413.576 164.052C413.766 164.118 413.969 164.153 414.175 164.153H427.621C428.037 164.153 428.436 164.013 428.731 163.764C429.025 163.515 429.19 163.177 429.191 162.825V151.454C429.189 151.103 429.024 150.765 428.73 150.516C428.435 150.268 428.037 150.127 427.621 150.126V150.126Z" fill="white"/>
<path d="M427.621 169.512H414.175C413.969 169.512 413.766 169.546 413.576 169.613C413.386 169.68 413.213 169.778 413.068 169.901C412.923 170.025 412.807 170.171 412.729 170.332C412.651 170.493 412.611 170.666 412.611 170.84V182.21C412.611 182.384 412.651 182.557 412.729 182.718C412.807 182.879 412.923 183.025 413.068 183.149C413.213 183.272 413.386 183.37 413.576 183.437C413.766 183.504 413.969 183.538 414.175 183.538H427.621C428.037 183.538 428.436 183.398 428.731 183.149C429.025 182.9 429.19 182.562 429.191 182.21V170.84C429.19 170.487 429.025 170.15 428.731 169.901C428.436 169.652 428.037 169.512 427.621 169.512Z" fill="#F4E04D"/>
<path d="M455.853 91.9708H442.407C441.992 91.9721 441.594 92.1125 441.301 92.3615C441.008 92.6104 440.843 92.9475 440.843 93.2989V104.675C440.843 105.025 441.008 105.362 441.301 105.61C441.595 105.858 441.992 105.998 442.407 105.998H455.853C456.268 105.998 456.667 105.859 456.961 105.611C457.255 105.363 457.421 105.026 457.423 104.675V93.2989C457.421 92.947 457.256 92.6098 456.961 92.3609C456.667 92.1121 456.269 91.9719 455.853 91.9708Z" fill="#F4E04D"/>
<path d="M455.853 111.356H442.407C441.992 111.357 441.594 111.498 441.301 111.747C441.008 111.996 440.843 112.333 440.843 112.684V124.06C440.843 124.411 441.008 124.747 441.301 124.995C441.595 125.243 441.992 125.383 442.407 125.383H455.853C456.268 125.383 456.667 125.244 456.961 124.996C457.255 124.748 457.421 124.411 457.423 124.06V112.684C457.421 112.332 457.256 111.995 456.961 111.746C456.667 111.497 456.269 111.357 455.853 111.356V111.356Z" fill="#F4E04D"/>
<path d="M455.853 130.741H442.407C441.992 130.742 441.594 130.883 441.301 131.132C441.008 131.381 440.843 131.718 440.843 132.069V143.44C440.843 143.614 440.883 143.786 440.961 143.948C441.039 144.109 441.154 144.255 441.3 144.378C441.445 144.502 441.617 144.6 441.807 144.666C441.998 144.733 442.201 144.768 442.407 144.768H455.853C456.269 144.768 456.668 144.628 456.963 144.379C457.257 144.13 457.422 143.792 457.423 143.44V132.069C457.421 131.717 457.256 131.38 456.961 131.131C456.667 130.882 456.269 130.742 455.853 130.741Z" fill="#E6E6E6"/>
<path d="M455.853 150.126H442.407C441.992 150.128 441.594 150.268 441.301 150.517C441.008 150.766 440.843 151.103 440.843 151.454V162.825C440.843 162.999 440.883 163.172 440.961 163.333C441.039 163.494 441.154 163.64 441.3 163.763C441.445 163.887 441.617 163.985 441.807 164.052C441.998 164.118 442.201 164.153 442.407 164.153H455.853C456.269 164.153 456.668 164.013 456.963 163.764C457.257 163.515 457.422 163.177 457.423 162.825V151.454C457.421 151.103 457.256 150.765 456.961 150.516C456.667 150.268 456.269 150.127 455.853 150.126V150.126Z" fill="#F4E04D"/>
<path d="M455.853 169.512H442.407C442.201 169.512 441.998 169.546 441.807 169.613C441.617 169.68 441.445 169.778 441.3 169.901C441.154 170.025 441.039 170.171 440.961 170.332C440.883 170.493 440.843 170.666 440.843 170.84V182.21C440.843 182.384 440.883 182.557 440.961 182.718C441.039 182.879 441.154 183.025 441.3 183.149C441.445 183.272 441.617 183.37 441.807 183.437C441.997 183.504 442.201 183.538 442.407 183.538H455.853C456.269 183.538 456.668 183.398 456.963 183.149C457.257 182.9 457.422 182.562 457.423 182.21V170.84C457.422 170.487 457.257 170.15 456.963 169.901C456.668 169.652 456.269 169.512 455.853 169.512V169.512Z" fill="#F4E04D"/>
<path d="M484.085 91.9708H470.639C470.223 91.9721 469.826 92.1125 469.533 92.3615C469.239 92.6104 469.075 92.9475 469.075 93.2989V104.675C469.075 105.025 469.24 105.362 469.533 105.61C469.826 105.858 470.224 105.998 470.639 105.998H484.085C484.5 105.998 484.898 105.859 485.193 105.611C485.487 105.363 485.653 105.026 485.654 104.675V93.2989C485.653 92.947 485.487 92.6098 485.193 92.3609C484.899 92.1121 484.5 91.9719 484.085 91.9708V91.9708Z" fill="#E6E6E6"/>
<path d="M484.085 111.356H470.639C470.223 111.357 469.826 111.498 469.533 111.747C469.239 111.996 469.075 112.333 469.075 112.684V124.06C469.075 124.411 469.24 124.747 469.533 124.995C469.826 125.243 470.224 125.383 470.639 125.383H484.085C484.5 125.383 484.898 125.244 485.193 124.996C485.487 124.748 485.653 124.411 485.654 124.06V112.684C485.653 112.332 485.487 111.995 485.193 111.746C484.899 111.497 484.5 111.357 484.085 111.356V111.356Z" fill="#F4E04D"/>
<path d="M484.085 130.741H470.639C470.223 130.742 469.826 130.883 469.533 131.132C469.239 131.381 469.075 131.718 469.075 132.069V143.44C469.075 143.614 469.115 143.786 469.193 143.948C469.271 144.109 469.386 144.255 469.531 144.378C469.677 144.502 469.849 144.6 470.039 144.666C470.229 144.733 470.433 144.768 470.639 144.768H484.085C484.501 144.768 484.9 144.628 485.194 144.379C485.489 144.13 485.654 143.792 485.654 143.44V132.069C485.653 131.717 485.487 131.38 485.193 131.131C484.899 130.882 484.5 130.742 484.085 130.741V130.741Z" fill="#F4E04D"/>
<path d="M484.085 150.126H470.639C470.223 150.128 469.826 150.268 469.533 150.517C469.239 150.766 469.075 151.103 469.075 151.454V162.825C469.075 162.999 469.115 163.172 469.193 163.333C469.271 163.494 469.386 163.64 469.531 163.763C469.677 163.887 469.849 163.985 470.039 164.052C470.229 164.118 470.433 164.153 470.639 164.153H484.085C484.501 164.153 484.9 164.013 485.194 163.764C485.489 163.515 485.654 163.177 485.654 162.825V151.454C485.653 151.103 485.487 150.765 485.193 150.516C484.899 150.268 484.5 150.127 484.085 150.126V150.126Z" fill="#F4E04D"/>
<path d="M484.085 169.512H470.639C470.433 169.512 470.229 169.546 470.039 169.613C469.849 169.68 469.677 169.778 469.531 169.901C469.386 170.025 469.271 170.171 469.193 170.332C469.115 170.493 469.075 170.666 469.075 170.84V182.21C469.075 182.384 469.115 182.557 469.193 182.718C469.271 182.879 469.386 183.025 469.531 183.149C469.677 183.272 469.849 183.37 470.039 183.437C470.229 183.504 470.433 183.538 470.639 183.538H484.085C484.501 183.538 484.9 183.398 485.194 183.149C485.489 182.9 485.654 182.562 485.654 182.21V170.84C485.654 170.487 485.489 170.15 485.194 169.901C484.9 169.652 484.501 169.512 484.085 169.512V169.512Z" fill="#E6E6E6"/>
<path d="M512.316 91.9708H498.871C498.455 91.9721 498.057 92.1125 497.764 92.3615C497.471 92.6104 497.307 92.9475 497.307 93.2989V104.675C497.307 105.025 497.472 105.362 497.765 105.61C498.058 105.858 498.456 105.998 498.871 105.998H512.316C512.732 105.998 513.13 105.859 513.424 105.611C513.719 105.363 513.885 105.026 513.886 104.675V93.2989C513.885 92.947 513.719 92.6098 513.425 92.3609C513.131 92.1121 512.732 91.9719 512.316 91.9708V91.9708Z" fill="#E6E6E6"/>
<path d="M512.316 111.356H498.871C498.455 111.357 498.057 111.498 497.764 111.747C497.471 111.996 497.307 112.333 497.307 112.684V124.06C497.307 124.411 497.472 124.747 497.765 124.995C498.058 125.243 498.456 125.383 498.871 125.383H512.316C512.732 125.383 513.13 125.244 513.424 124.996C513.719 124.748 513.885 124.411 513.886 124.06V112.684C513.885 112.332 513.719 111.995 513.425 111.746C513.131 111.497 512.732 111.357 512.316 111.356V111.356Z" fill="#E6E6E6"/>
<path d="M512.316 130.741H498.871C498.455 130.742 498.057 130.883 497.764 131.132C497.471 131.381 497.307 131.718 497.307 132.069V143.44C497.306 143.614 497.346 143.786 497.425 143.948C497.503 144.109 497.618 144.255 497.763 144.378C497.908 144.502 498.081 144.6 498.271 144.666C498.461 144.733 498.665 144.768 498.871 144.768H512.316C512.733 144.768 513.132 144.628 513.426 144.379C513.72 144.13 513.886 143.792 513.886 143.44V132.069C513.885 131.717 513.719 131.38 513.425 131.131C513.131 130.882 512.732 130.742 512.316 130.741V130.741Z" fill="#F4E04D"/>
<path d="M512.316 150.126H498.871C498.455 150.128 498.057 150.268 497.764 150.517C497.471 150.766 497.307 151.103 497.307 151.454V162.825C497.306 162.999 497.346 163.172 497.425 163.333C497.503 163.494 497.618 163.64 497.763 163.763C497.908 163.887 498.081 163.985 498.271 164.052C498.461 164.118 498.665 164.153 498.871 164.153H512.316C512.733 164.153 513.132 164.013 513.426 163.764C513.72 163.515 513.886 163.177 513.886 162.825V151.454C513.885 151.103 513.719 150.765 513.425 150.516C513.131 150.268 512.732 150.127 512.316 150.126V150.126Z" fill="#E6E6E6"/>
<path d="M512.316 169.512H498.871C498.665 169.512 498.461 169.546 498.271 169.613C498.081 169.68 497.908 169.778 497.763 169.901C497.618 170.025 497.503 170.171 497.425 170.332C497.346 170.493 497.306 170.666 497.307 170.84V182.21C497.306 182.384 497.346 182.557 497.425 182.718C497.503 182.879 497.618 183.025 497.763 183.149C497.908 183.272 498.081 183.37 498.271 183.437C498.461 183.504 498.665 183.538 498.871 183.538H512.316C512.733 183.538 513.132 183.398 513.426 183.149C513.72 182.9 513.886 182.562 513.886 182.21V170.84C513.886 170.487 513.72 170.15 513.426 169.901C513.132 169.652 512.733 169.512 512.316 169.512V169.512Z" fill="#E6E6E6"/>
<path d="M203.286 337.161H202.912L203.232 337.124L203.286 337.161Z" fill="#2F2E41"/>
<path d="M171.118 125.176C193.899 125.176 212.367 109.551 212.367 90.2766C212.367 71.0022 193.899 55.3772 171.118 55.3772C148.336 55.3772 129.868 71.0022 129.868 90.2766C129.868 109.551 148.336 125.176 171.118 125.176Z" fill="#CF9F7B"/>
<path d="M207.241 64.6889C207.241 64.6889 218.03 47.2393 194.294 45.6529C194.294 45.6529 174.06 30.1232 153.435 42.8138C153.435 42.8138 142.185 42.8138 136.033 53.5846C136.033 53.5846 127.185 50.7455 125.24 58.3436C125.24 58.3436 118.766 74.207 125.24 88.484C131.715 102.761 133.865 104.347 133.865 104.347C133.865 104.347 123.226 74.4148 149.122 72.8284C175.018 71.242 203.996 57.5504 206.154 75.0001C208.312 92.4497 211.559 96.7492 211.559 96.7492C211.559 96.7492 232.057 71.8275 207.241 64.6889Z" fill="#2F2E41"/>
<path d="M277.822 176.285L277.689 176.877L276.198 183.538L265.892 229.613L265.282 232.326L264.002 238.062L262.251 245.888L258.369 263.23L257.258 268.2L256.841 270.064L256.697 270.718L255.543 275.862L255.193 277.415L252.38 295.053L249.922 310.423L258.146 317.38L253.243 321.528L250.025 337.123L250.031 337.159H118.695C113.382 334.247 108.146 331.245 102.985 328.153L104.066 321.308C104.066 321.308 107.785 309.085 106.222 307.624C104.664 306.163 101.247 303.553 101.247 303.553L105.551 295.053L106.149 293.873L105.147 276.286L105.123 275.862L104.791 270.064L104.748 269.318L104.682 268.2L103.408 245.888L103.384 245.52L102.998 238.757L102.635 232.326L102.478 229.613L100.927 202.474L99.8761 184.044L98.9584 168L102.647 166.942L142.103 155.597L158.447 137.622L192.463 137.836L209.114 137.944L236.899 159.745L243.221 162.299L243.269 162.319L247.803 164.153L259.299 168.796L271.453 173.71L277.689 176.229L277.822 176.285Z" fill="#CACACA"/>
<path d="M162.843 284.802C160.35 285.619 157.676 285.963 155.009 285.811C152.342 285.659 149.746 285.015 147.405 283.922C145.065 282.83 143.036 281.317 141.461 279.489C139.886 277.661 138.804 275.564 138.291 273.344L73.9555 265.622L96.3205 244.218L153.986 254.833C158.451 254.351 162.969 255.271 166.685 257.42C170.401 259.568 173.056 262.795 174.148 266.489C175.24 270.183 174.692 274.088 172.608 277.463C170.525 280.838 167.05 283.449 162.843 284.802V284.802Z" fill="#FFB6B6"/>
<path d="M134.157 245.888C132.966 244.609 131.279 243.728 129.394 243.4L102.998 238.757L100.287 238.282C98.7112 238.003 97.223 237.447 95.9193 236.649C94.6156 235.85 93.5259 234.828 92.7215 233.649C91.8871 232.411 91.3822 231.033 91.2423 229.613C91.1165 228.322 91.2992 227.023 91.7796 225.792L100.927 202.474L106.861 187.344C107.581 185.519 108.005 183.62 108.123 181.699C108.454 176.383 106.51 171.144 102.647 166.942C99.2513 163.249 94.5412 160.577 89.2127 159.322C83.8842 158.068 78.2201 158.296 73.057 159.975C72.9061 160.021 72.7491 160.072 72.5982 160.123C68.8955 161.374 65.5874 163.336 62.9353 165.855C60.2832 168.373 58.3597 171.379 57.317 174.635L50.8689 194.48L37.568 235.39C36.2366 239.489 35.9676 243.783 36.7795 247.978C37.5914 252.173 39.465 256.17 42.2721 259.696C45.0792 263.221 48.7535 266.192 53.0436 268.405C57.3336 270.618 62.138 272.02 67.1281 272.516L105.147 276.286L122.74 278.033C124.775 278.24 126.827 277.79 128.487 276.775C130.148 275.759 131.295 274.251 131.7 272.552C131.729 272.459 131.751 272.365 131.767 272.271L132.189 270.064L135.77 251.481L135.806 251.292C135.992 250.344 135.942 249.373 135.658 248.442C135.374 247.511 134.863 246.641 134.157 245.888Z" fill="#CACACA"/>
<path d="M203.822 285.397C206.426 285.909 209.131 285.931 211.746 285.462C214.361 284.994 216.823 284.046 218.958 282.685C221.094 281.324 222.85 279.584 224.105 277.587C225.359 275.59 226.08 273.384 226.218 271.125L288.624 255.804L262.915 237.283L207.595 254.671C203.095 254.727 198.775 256.177 195.454 258.747C192.133 261.318 190.042 264.829 189.577 268.617C189.112 272.404 190.305 276.204 192.931 279.297C195.556 282.39 199.431 284.56 203.822 285.397V285.397Z" fill="#FFB6B6"/>
<path d="M319.608 221.532L289.927 163.739C287.5 158.995 283.164 155.131 277.689 152.834C275.997 152.129 274.22 151.581 272.388 151.199C272.105 151.138 271.821 151.082 271.537 151.036C267.653 150.319 263.625 150.382 259.776 151.219C256.257 151.984 252.968 153.368 250.124 155.281C247.28 157.193 244.944 159.592 243.269 162.319C243.251 162.342 243.235 162.366 243.221 162.391C241.35 165.453 240.355 168.844 240.316 172.291C240.277 175.738 241.196 179.144 242.997 182.236L243.366 182.859L264.34 218.498C265.056 219.717 265.46 221.05 265.524 222.41C265.589 223.77 265.313 225.126 264.714 226.389C264.115 227.652 263.208 228.794 262.051 229.74C260.894 230.685 259.514 231.413 258.001 231.876L256.528 232.326L230.035 240.422C228.047 241.022 226.411 242.251 225.473 243.851C224.535 245.451 224.367 247.296 225.005 248.998L225.072 249.177L232.498 269.283C232.534 269.375 232.57 269.466 232.613 269.558C232.678 269.732 232.759 269.901 232.854 270.064C233.643 271.562 235.038 272.772 236.788 273.477C238.538 274.182 240.528 274.336 242.399 273.91L256.697 270.718L259.613 270.064L296.533 261.815C301.391 260.729 305.914 258.767 309.792 256.065C313.671 253.362 316.814 249.983 319.005 246.157C321.197 242.332 322.385 238.151 322.489 233.9C322.593 229.65 321.611 225.431 319.608 221.532L319.608 221.532Z" fill="#CACACA"/>
<path d="M27.4732 270.064C36.0287 278.893 45.2557 287.24 55.0952 295.053H327.976C330.605 295.056 333.126 295.942 334.984 297.515C336.843 299.088 337.888 301.221 337.89 303.445L338.283 361.948C355.07 355.423 370.791 347.091 385.056 337.159C389.017 334.406 392.854 331.533 396.57 328.541C399.003 326.59 401.377 324.591 403.694 322.545C421.06 307.238 435.123 289.476 445.245 270.064H27.4732Z" fill="#3F3D56"/>
<path d="M403.694 322.545C401.382 324.593 399.007 326.592 396.57 328.541H338.482V322.545H403.694Z" fill="white"/>
<path d="M277.279 130.741C276.992 130.293 276.567 129.919 276.05 129.658C275.532 129.397 274.941 129.26 274.338 129.26H76.4019C75.5145 129.262 74.6641 129.561 74.0372 130.093C73.4102 130.624 73.0578 131.344 73.0571 132.095V232.326H277.689V132.095C277.692 131.621 277.551 131.155 277.279 130.741V130.741Z" fill="#3F3D56"/>
<path d="M72.8778 229.612V241.981C72.8778 242.493 72.9972 243.001 73.2291 243.475C73.461 243.949 73.801 244.379 74.2295 244.742C74.6581 245.104 75.1668 245.392 75.7267 245.588C76.2867 245.784 76.8868 245.885 77.4928 245.885H153.021V270.295H152.018C151.939 270.295 151.861 270.308 151.788 270.334C151.716 270.359 151.65 270.396 151.594 270.444C151.538 270.491 151.494 270.547 151.464 270.608C151.434 270.67 151.418 270.736 151.418 270.802V272.5C151.418 272.567 151.434 272.633 151.464 272.694C151.494 272.756 151.538 272.812 151.594 272.859C151.65 272.906 151.716 272.943 151.788 272.969C151.861 272.994 151.939 273.007 152.018 273.007H198.905C198.984 273.007 199.062 272.994 199.134 272.969C199.207 272.943 199.273 272.906 199.329 272.859C199.384 272.812 199.429 272.756 199.459 272.694C199.489 272.633 199.504 272.567 199.504 272.5V270.802C199.504 270.736 199.489 270.67 199.459 270.608C199.429 270.547 199.384 270.491 199.329 270.444C199.273 270.396 199.207 270.359 199.134 270.334C199.062 270.308 198.984 270.295 198.905 270.295H197.901V245.885H273.43C274.036 245.885 274.636 245.784 275.196 245.588C275.756 245.392 276.265 245.104 276.693 244.742C277.122 244.379 277.462 243.949 277.694 243.475C277.925 243.001 278.045 242.493 278.045 241.981V229.612H72.8778Z" fill="#3F3D56"/>
<path d="M172.982 194.112C183.421 194.112 191.884 186.953 191.884 178.121C191.884 169.289 183.421 162.129 172.982 162.129C162.543 162.129 154.081 169.289 154.081 178.121C154.081 186.953 162.543 194.112 172.982 194.112Z" fill="#F4E04D"/>
<path d="M221.141 88.3696H218.122C218.122 69.0611 195.536 56.4083 172.75 56.3981C169.436 56.3899 166.129 56.662 162.878 57.2103C159.22 57.8284 155.422 58.5691 151.691 59.5345C136.977 63.3502 123.332 70.7263 123.332 88.3696C123.329 91.7961 123.844 95.2088 124.866 98.5245L121.943 99.1681C120.86 95.6419 120.312 92.0131 120.313 88.3696C120.313 72.9534 127.794 62.3644 140.714 56.0508C147.507 52.7305 155.796 50.5902 165.293 49.5482C169.246 49.1034 173.241 49.0007 177.218 49.2417C203.421 50.8354 221.141 67.8351 221.141 88.3696Z" fill="#F4E04D"/>
<path d="M226.17 89.7845L224.981 82.3472C224.688 80.4689 223.618 78.7391 221.962 77.4638C220.899 76.6325 219.626 76.0165 218.241 75.6626C216.855 75.3086 215.392 75.2258 213.962 75.4206L212.073 75.6403C211.556 75.6978 211.057 75.8417 210.606 76.0636C210.155 76.2854 209.761 76.5808 209.446 76.9326C209.129 77.2832 208.896 77.6835 208.763 78.1105C208.629 78.5375 208.597 78.9826 208.667 79.4202L211.415 96.5527C211.528 97.251 211.898 97.9015 212.472 98.4121C213.046 98.9228 213.796 99.2676 214.614 99.3979C214.857 99.4391 215.104 99.4596 215.351 99.4592C215.529 99.4592 215.706 99.449 215.882 99.4286L217.996 99.1885C219.284 99.0439 220.524 98.6779 221.639 98.1131C222.754 97.5482 223.721 96.7965 224.48 95.904C224.643 95.7099 224.8 95.5107 224.945 95.3064C226.076 93.635 226.508 91.6894 226.17 89.7845Z" fill="#F4E04D"/>
<path d="M210.853 75.9519C210.299 76.1797 209.817 76.5159 209.446 76.9326C209.129 77.2832 208.896 77.6836 208.763 78.1105C208.629 78.5375 208.597 78.9826 208.667 79.4203L211.415 96.5528C211.528 97.2511 211.898 97.9015 212.472 98.4122C213.046 98.9228 213.796 99.2676 214.614 99.398L210.853 75.9519Z" fill="white"/>
<path d="M226.171 89.7845L224.981 82.3472C224.688 80.4689 223.618 78.7391 221.962 77.4638L224.697 94.5095C224.738 94.7831 224.822 95.051 224.945 95.3064C226.076 93.635 226.508 91.6894 226.171 89.7845V89.7845Z" fill="#3F3D56"/>
<path d="M216.77 95.1433C217.596 95.0485 218.011 93.3853 217.698 91.4284C217.384 89.4716 216.46 87.9621 215.634 88.0569C214.808 88.1517 214.393 89.8149 214.706 91.7717C215.02 93.7286 215.944 95.2381 216.77 95.1433Z" fill="#3F3D56"/>
<path d="M214.959 85.9487C215.785 85.8539 216.2 84.1907 215.886 82.2339C215.573 80.277 214.649 78.7675 213.823 78.8623C212.997 78.9571 212.581 80.6203 212.895 82.5772C213.209 84.5341 214.133 86.0435 214.959 85.9487Z" fill="#3F3D56"/>
<path d="M226.43 89.5244C227.256 89.4296 227.672 87.7664 227.358 85.8095C227.044 83.8527 226.12 82.3432 225.294 82.438C224.468 82.5328 224.053 84.196 224.366 86.1529C224.68 88.1097 225.604 89.6192 226.43 89.5244Z" fill="#3F3D56"/>
<path d="M172.75 56.3981C169.436 56.3899 166.129 56.662 162.878 57.2103C159.22 57.8284 155.422 58.569 151.691 59.5345C145.864 59.2944 141.578 58.0174 140.714 56.0508C147.507 52.7305 155.796 50.5902 165.293 49.5482C169.246 49.1033 173.241 49.0007 177.218 49.2417C177.639 49.4505 178.003 49.7323 178.286 50.0686C178.569 50.4049 178.764 50.7881 178.86 51.193C179.144 52.9706 176.747 54.8606 172.75 56.3981Z" fill="#3F3D56"/>
<path d="M134.206 106.095L129.557 89.7437C129.391 89.1538 129.023 88.6185 128.499 88.205C127.975 87.7915 127.318 87.5182 126.611 87.4195C126.411 87.3932 126.209 87.3796 126.007 87.3787C125.722 87.3795 125.438 87.4087 125.162 87.4655L123.362 87.8333C121.046 88.3073 119.046 89.5394 117.802 91.2594C116.558 92.9793 116.172 95.0465 116.727 97.0074L118.81 104.343C119.286 106.07 120.418 107.616 122.034 108.746C122.296 108.925 122.57 109.09 122.855 109.241C123.867 109.778 124.996 110.138 126.175 110.299C127.354 110.46 128.559 110.42 129.72 110.181L131.513 109.813C131.987 109.72 132.433 109.544 132.823 109.297C133.403 108.94 133.844 108.444 134.09 107.874C134.337 107.304 134.377 106.684 134.206 106.095Z" fill="#F4E04D"/>
<path d="M124.46 103.052C125.27 102.887 125.485 101.197 124.938 99.2772C124.392 97.3572 123.293 95.9345 122.482 96.0995C121.672 96.2645 121.457 97.9548 122.003 99.8747C122.55 101.795 123.649 103.217 124.46 103.052Z" fill="#3F3D56"/>
<path d="M118.422 104.585C119.233 104.42 119.447 102.73 118.901 100.81C118.355 98.8896 117.255 97.467 116.445 97.632C115.634 97.797 115.42 99.4872 115.966 101.407C116.512 103.327 117.612 104.75 118.422 104.585Z" fill="#3F3D56"/>
<path d="M134.502 106.033L129.853 89.6824C129.672 89.0441 129.272 88.4652 128.704 88.0182C128.136 87.5712 127.424 87.2758 126.659 87.1692L133.004 109.502C133.631 109.113 134.108 108.577 134.374 107.959C134.641 107.342 134.685 106.672 134.502 106.033V106.033Z" fill="white"/>
<path d="M117.778 93.7689C117.649 93.3142 117.408 92.8876 117.071 92.5174C116.418 93.9493 116.298 95.5161 116.727 97.0074L118.81 104.343C119.286 106.069 120.418 107.616 122.034 108.746L117.778 93.7689Z" fill="#3F3D56"/>
</g>
<defs>
<clipPath id="clip0_336_2">
<rect width="513.521" height="378.422" fill="white" transform="translate(0.365601)"/>
</clipPath>
</defs>
</svg>
