<svg width="630" height="435" viewBox="0 0 630 435" fill="none" xmlns="http://www.w3.org/2000/svg">
<g clip-path="url(#clip0_2_1345)">
<path d="M568.032 226.381C568.115 280.208 541.869 331.963 494.813 370.768C491.977 373.123 489.063 375.421 486.073 377.662C481.518 381.097 476.809 384.399 471.948 387.568C426.47 417.27 369.696 433.96 310.785 434.947C308.822 434.982 306.852 435 304.874 435C257.891 435 198.797 415.106 145.17 387.568C140.733 385.289 136.336 382.958 131.978 380.574C129.941 379.47 127.914 378.351 125.897 377.216C105.213 365.638 85.5807 352.924 67.1437 339.166C55.0723 330.186 43.7525 320.59 33.2563 310.442C-7.94927 270.149 -17.0377 233.844 41.7078 226.381C48.663 225.5 55.4133 224.559 61.9587 223.557C71.4398 222.112 80.5135 220.552 89.1797 218.877C100.853 216.628 111.821 214.189 122.082 211.561C125.534 210.68 128.906 209.781 132.2 208.865C180.894 195.307 213.485 177.627 235.67 158.444C239.432 155.197 242.901 151.911 246.076 148.585C250.934 143.524 255.347 138.203 259.283 132.661C264.716 124.961 269.279 116.895 272.92 108.557L273.12 108.099C290.771 67.7368 285.401 30.2982 304.874 17.7678C388.115 -35.8006 491.747 40.4857 540.389 130.448C542.841 134.981 545.147 139.541 547.307 144.129C548.278 146.178 549.214 148.231 550.115 150.288C552.485 155.649 554.635 161.024 556.566 166.412C557.307 168.467 558.013 170.521 558.685 172.572C559.403 174.785 560.092 176.993 560.729 179.201C565.462 195.366 568.032 211.308 568.032 226.381Z" fill="#282A36"/>
<path d="M310.785 434.947C308.822 434.982 306.851 435 304.874 435C257.891 435 198.797 415.106 145.17 387.568C140.733 385.289 136.336 382.958 131.978 380.574L135.8 362.137L251.506 349.959L309.577 385.16L310.785 434.947Z" fill="#2F2E41"/>
<path d="M316.355 105.721H299.867C299.356 105.722 298.866 105.883 298.505 106.169C298.144 106.455 297.941 106.843 297.941 107.248V120.325C297.941 120.525 297.991 120.723 298.088 120.908C298.185 121.092 298.327 121.26 298.506 121.402C298.685 121.543 298.897 121.655 299.131 121.731C299.364 121.807 299.614 121.846 299.867 121.845H316.355C316.864 121.846 317.353 121.686 317.714 121.4C318.075 121.115 318.279 120.728 318.281 120.325V107.248C318.279 106.844 318.076 106.456 317.715 106.17C317.354 105.884 316.865 105.723 316.355 105.721Z" fill="white"/>
<path d="M316.355 128.005H299.867C299.356 128.005 298.866 128.166 298.505 128.452C298.144 128.739 297.941 129.127 297.941 129.532V142.608C297.941 142.808 297.991 143.006 298.088 143.191C298.185 143.376 298.327 143.544 298.506 143.685C298.685 143.826 298.897 143.938 299.131 144.014C299.364 144.091 299.614 144.129 299.867 144.129H316.355C316.864 144.129 317.353 143.969 317.714 143.684C318.075 143.399 318.279 143.012 318.281 142.608V129.532C318.279 129.127 318.076 128.739 317.715 128.453C317.354 128.167 316.865 128.006 316.355 128.005Z" fill="#E6E6E6"/>
<path d="M316.355 150.288H299.867C299.356 150.289 298.866 150.449 298.505 150.736C298.144 151.022 297.941 151.41 297.941 151.815V164.886C297.94 165.086 297.99 165.285 298.086 165.47C298.183 165.656 298.325 165.824 298.504 165.966C298.683 166.108 298.895 166.22 299.129 166.297C299.363 166.373 299.614 166.413 299.867 166.412H316.355C316.865 166.412 317.355 166.251 317.716 165.965C318.077 165.679 318.28 165.291 318.281 164.886V151.815C318.279 151.411 318.076 151.023 317.715 150.737C317.354 150.451 316.865 150.29 316.355 150.288Z" fill="#E6E6E6"/>
<path d="M318.251 173.828C318.169 173.477 317.934 173.159 317.588 172.929C317.242 172.7 316.806 172.574 316.355 172.572H299.867C299.356 172.572 298.866 172.733 298.505 173.019C298.144 173.305 297.941 173.694 297.941 174.098V187.169C297.94 187.37 297.99 187.568 298.086 187.754C298.183 187.939 298.325 188.108 298.504 188.25C298.683 188.391 298.895 188.504 299.129 188.58C299.363 188.657 299.614 188.696 299.867 188.696H316.355C316.865 188.696 317.355 188.535 317.716 188.248C318.077 187.962 318.28 187.574 318.281 187.169V174.098C318.282 174.008 318.272 173.917 318.251 173.828Z" fill="#E6E6E6"/>
<path d="M317.103 194.973C316.866 194.895 316.611 194.855 316.355 194.855H299.867C299.614 194.855 299.363 194.894 299.129 194.971C298.895 195.047 298.683 195.16 298.504 195.302C298.325 195.443 298.183 195.612 298.086 195.797C297.99 195.983 297.94 196.181 297.941 196.382V209.453C297.94 209.653 297.989 209.852 298.085 210.038C298.182 210.224 298.323 210.392 298.502 210.534C298.681 210.676 298.894 210.789 299.128 210.865C299.362 210.941 299.613 210.98 299.867 210.979H316.355C316.865 210.979 317.355 210.818 317.716 210.532C318.077 210.246 318.28 209.857 318.281 209.453V196.382C318.28 196.082 318.168 195.788 317.958 195.537C317.749 195.287 317.452 195.091 317.103 194.973Z" fill="#E6E6E6"/>
<path d="M350.99 105.721H334.502C333.991 105.722 333.502 105.883 333.141 106.169C332.78 106.455 332.577 106.843 332.576 107.248V120.325C332.577 120.525 332.627 120.723 332.724 120.908C332.82 121.092 332.962 121.26 333.141 121.402C333.32 121.543 333.532 121.655 333.766 121.731C333.999 121.807 334.25 121.846 334.502 121.845H350.99C351.5 121.846 351.989 121.686 352.35 121.4C352.711 121.115 352.914 120.728 352.916 120.325V107.248C352.915 106.844 352.711 106.456 352.35 106.17C351.989 105.884 351.5 105.723 350.99 105.721Z" fill="#E6E6E6"/>
<path d="M350.99 128.005H334.502C333.991 128.005 333.502 128.166 333.141 128.452C332.779 128.739 332.577 129.127 332.576 129.532V142.608C332.577 142.808 332.627 143.006 332.724 143.191C332.82 143.376 332.962 143.544 333.141 143.685C333.32 143.826 333.532 143.938 333.766 144.014C333.999 144.091 334.25 144.129 334.502 144.129H350.99C351.5 144.129 351.989 143.969 352.35 143.684C352.711 143.399 352.914 143.012 352.916 142.608V129.532C352.915 129.127 352.711 128.739 352.35 128.453C351.989 128.167 351.501 128.006 350.99 128.005Z" fill="#FDFDFD"/>
<path d="M350.99 150.288H334.502C333.991 150.289 333.502 150.449 333.141 150.736C332.779 151.022 332.577 151.41 332.576 151.815V164.886C332.576 165.086 332.625 165.285 332.722 165.47C332.818 165.656 332.96 165.824 333.139 165.966C333.318 166.108 333.531 166.22 333.764 166.297C333.998 166.373 334.249 166.413 334.502 166.412H350.99C351.501 166.412 351.991 166.251 352.352 165.965C352.713 165.679 352.916 165.291 352.916 164.886V151.815C352.915 151.411 352.711 151.023 352.35 150.737C351.989 150.451 351.501 150.29 350.99 150.288Z" fill="#FDFDFD"/>
<path d="M350.99 172.572H334.502C334.098 172.572 333.705 172.673 333.378 172.861C333.051 173.048 332.806 173.313 332.68 173.617C332.611 173.772 332.576 173.934 332.576 174.098V187.169C332.576 187.37 332.625 187.568 332.722 187.754C332.818 187.939 332.96 188.108 333.139 188.249C333.318 188.391 333.531 188.504 333.764 188.58C333.998 188.657 334.249 188.696 334.502 188.696H350.99C351.501 188.696 351.991 188.535 352.352 188.248C352.713 187.962 352.916 187.574 352.916 187.169V174.098C352.915 173.694 352.711 173.306 352.35 173.02C351.989 172.734 351.5 172.573 350.99 172.572Z" fill="#FDFDFD"/>
<path d="M350.99 194.855H334.502C334.249 194.855 333.998 194.894 333.764 194.971C333.531 195.047 333.318 195.16 333.139 195.302C332.96 195.443 332.818 195.612 332.722 195.797C332.625 195.983 332.576 196.181 332.576 196.382V209.453C332.576 209.653 332.625 209.852 332.722 210.037C332.818 210.223 332.96 210.391 333.139 210.533C333.318 210.675 333.531 210.787 333.764 210.864C333.998 210.94 334.249 210.98 334.502 210.979H350.99C351.501 210.979 351.991 210.818 352.352 210.532C352.713 210.246 352.916 209.857 352.916 209.453V196.382C352.916 195.977 352.713 195.589 352.352 195.303C351.991 195.016 351.501 194.856 350.99 194.855Z" fill="#E6E6E6"/>
<path d="M385.626 105.721H369.138C368.627 105.722 368.137 105.883 367.776 106.169C367.415 106.455 367.212 106.843 367.212 107.248V120.325C367.212 120.525 367.262 120.723 367.359 120.908C367.456 121.092 367.598 121.26 367.777 121.402C367.956 121.543 368.168 121.655 368.402 121.731C368.635 121.807 368.885 121.846 369.138 121.845H385.626C386.135 121.846 386.624 121.686 386.985 121.4C387.346 121.115 387.55 120.728 387.552 120.325V107.248C387.55 106.844 387.347 106.456 386.986 106.17C386.625 105.884 386.136 105.723 385.626 105.721Z" fill="#FDFDFD"/>
<path d="M385.626 128.005H369.138C368.627 128.005 368.137 128.166 367.776 128.452C367.415 128.739 367.212 129.127 367.212 129.532V142.608C367.212 142.808 367.262 143.006 367.359 143.191C367.456 143.376 367.598 143.544 367.777 143.685C367.956 143.826 368.168 143.938 368.402 144.014C368.635 144.091 368.885 144.129 369.138 144.129H385.626C386.135 144.129 386.624 143.969 386.985 143.684C387.346 143.399 387.55 143.012 387.552 142.608V129.532C387.55 129.127 387.347 128.739 386.986 128.453C386.625 128.167 386.136 128.006 385.626 128.005Z" fill="#FDFDFD"/>
<path d="M385.626 150.288H369.138C368.627 150.289 368.137 150.449 367.776 150.736C367.415 151.022 367.212 151.41 367.212 151.815V164.886C367.211 165.086 367.261 165.285 367.357 165.47C367.454 165.656 367.596 165.824 367.775 165.966C367.954 166.108 368.166 166.22 368.4 166.297C368.634 166.373 368.885 166.413 369.138 166.412H385.626C386.136 166.412 386.626 166.251 386.987 165.965C387.348 165.679 387.551 165.291 387.552 164.886V151.815C387.55 151.411 387.347 151.023 386.986 150.737C386.625 150.451 386.136 150.29 385.626 150.288Z" fill="#E6E6E6"/>
<path d="M385.626 172.572H369.138C368.627 172.572 368.137 172.733 367.776 173.019C367.415 173.305 367.212 173.694 367.212 174.098V187.169C367.211 187.37 367.261 187.568 367.357 187.754C367.454 187.939 367.596 188.108 367.775 188.25C367.954 188.391 368.166 188.504 368.4 188.58C368.634 188.657 368.885 188.696 369.138 188.696H385.626C386.137 188.696 386.626 188.535 386.987 188.248C387.349 187.962 387.551 187.574 387.552 187.169V174.098C387.55 173.694 387.347 173.306 386.986 173.02C386.625 172.734 386.136 172.573 385.626 172.572Z" fill="#FDFDFD"/>
<path d="M385.626 194.855H369.138C368.885 194.855 368.634 194.894 368.4 194.971C368.166 195.047 367.954 195.16 367.775 195.302C367.596 195.443 367.454 195.612 367.357 195.797C367.261 195.983 367.211 196.181 367.212 196.382V209.453C367.211 209.653 367.261 209.852 367.357 210.037C367.454 210.223 367.596 210.391 367.775 210.533C367.954 210.675 368.166 210.787 368.4 210.864C368.634 210.94 368.885 210.98 369.138 210.979H385.626C386.137 210.979 386.626 210.818 386.987 210.532C387.348 210.246 387.551 209.857 387.552 209.453V196.382C387.551 195.977 387.348 195.589 386.987 195.303C386.626 195.016 386.137 194.856 385.626 194.855Z" fill="#FDFDFD"/>
<path d="M420.261 105.721H403.773C403.262 105.722 402.773 105.883 402.412 106.169C402.05 106.455 401.847 106.843 401.847 107.248V120.325C401.847 120.525 401.897 120.723 401.994 120.908C402.091 121.092 402.233 121.26 402.412 121.402C402.591 121.543 402.803 121.655 403.037 121.731C403.27 121.807 403.521 121.846 403.773 121.845H420.261C420.771 121.846 421.26 121.686 421.621 121.4C421.982 121.115 422.185 120.728 422.187 120.325V107.248C422.186 106.844 421.982 106.456 421.621 106.17C421.26 105.884 420.771 105.723 420.261 105.721Z" fill="#FDFDFD"/>
<path d="M420.261 128.005H403.773C403.262 128.005 402.773 128.166 402.411 128.452C402.05 128.739 401.847 129.127 401.847 129.532V142.608C401.847 142.808 401.897 143.006 401.994 143.191C402.091 143.376 402.233 143.544 402.412 143.685C402.591 143.826 402.803 143.938 403.037 144.014C403.27 144.091 403.521 144.129 403.773 144.129H420.261C420.771 144.129 421.26 143.969 421.621 143.684C421.982 143.399 422.185 143.012 422.187 142.608V129.532C422.186 129.127 421.982 128.739 421.621 128.453C421.26 128.167 420.771 128.006 420.261 128.005Z" fill="white"/>
<path d="M420.261 150.288H403.773C403.262 150.289 402.773 150.449 402.411 150.736C402.05 151.022 401.847 151.41 401.847 151.815V164.886C401.847 165.086 401.896 165.285 401.993 165.47C402.089 165.656 402.231 165.824 402.41 165.966C402.589 166.108 402.802 166.22 403.035 166.297C403.269 166.373 403.52 166.413 403.773 166.412H420.261C420.772 166.412 421.262 166.251 421.623 165.965C421.984 165.679 422.187 165.291 422.187 164.886V151.815C422.186 151.411 421.982 151.023 421.621 150.737C421.26 150.451 420.771 150.29 420.261 150.288Z" fill="white"/>
<path d="M420.261 172.572H403.773C403.262 172.572 402.773 172.733 402.411 173.019C402.05 173.305 401.847 173.694 401.847 174.098V187.169C401.847 187.37 401.896 187.568 401.993 187.754C402.089 187.939 402.231 188.108 402.41 188.25C402.589 188.391 402.802 188.504 403.035 188.58C403.269 188.657 403.52 188.696 403.773 188.696H420.261C420.772 188.696 421.262 188.535 421.623 188.248C421.984 187.962 422.187 187.574 422.187 187.169V174.098C422.186 173.694 421.982 173.306 421.621 173.02C421.26 172.734 420.771 172.573 420.261 172.572Z" fill="#E6E6E6"/>
<path d="M420.261 194.855H403.773C403.52 194.855 403.269 194.894 403.035 194.971C402.802 195.047 402.589 195.16 402.41 195.302C402.231 195.443 402.089 195.612 401.993 195.797C401.896 195.983 401.847 196.181 401.847 196.382V209.453C401.847 209.653 401.896 209.852 401.993 210.037C402.089 210.223 402.231 210.391 402.41 210.533C402.589 210.675 402.802 210.787 403.035 210.864C403.269 210.94 403.52 210.98 403.773 210.979H420.261C420.772 210.979 421.262 210.818 421.623 210.532C421.984 210.246 422.187 209.857 422.187 209.453V196.382C422.187 195.977 421.984 195.589 421.623 195.303C421.262 195.016 420.772 194.856 420.261 194.855Z" fill="#FDFDFD"/>
<path d="M454.897 105.721H438.401C437.892 105.723 437.404 105.884 437.044 106.17C436.684 106.457 436.482 106.844 436.483 107.248V120.325C436.483 120.728 436.685 121.115 437.045 121.4C437.404 121.685 437.892 121.845 438.401 121.845H454.897C455.406 121.846 455.895 121.686 456.256 121.4C456.617 121.115 456.821 120.728 456.823 120.325V107.248C456.821 106.844 456.618 106.456 456.257 106.17C455.896 105.884 455.407 105.723 454.897 105.721Z" fill="white"/>
<path d="M454.897 128.005H438.401C437.892 128.006 437.403 128.168 437.044 128.454C436.684 128.74 436.482 129.128 436.483 129.532V142.608C436.483 143.011 436.685 143.398 437.045 143.683C437.404 143.969 437.892 144.129 438.401 144.129H454.897C455.406 144.129 455.895 143.969 456.256 143.684C456.617 143.399 456.821 143.012 456.823 142.608V129.532C456.821 129.127 456.618 128.739 456.257 128.453C455.896 128.167 455.407 128.006 454.897 128.005Z" fill="white"/>
<path d="M454.897 150.288H438.401C437.892 150.29 437.404 150.451 437.044 150.737C436.684 151.024 436.482 151.411 436.483 151.815V164.886C436.482 165.086 436.531 165.284 436.627 165.469C436.723 165.654 436.864 165.823 437.043 165.964C437.221 166.106 437.432 166.219 437.666 166.296C437.899 166.372 438.149 166.412 438.401 166.412H454.897C455.407 166.412 455.897 166.251 456.258 165.965C456.619 165.679 456.822 165.291 456.823 164.886V151.815C456.821 151.411 456.618 151.023 456.257 150.737C455.896 150.451 455.407 150.29 454.897 150.288Z" fill="white"/>
<path d="M454.897 172.572H438.401C437.892 172.573 437.404 172.735 437.044 173.021C436.684 173.307 436.482 173.695 436.483 174.098V187.169C436.482 187.369 436.531 187.568 436.627 187.753C436.723 187.938 436.864 188.106 437.043 188.248C437.221 188.39 437.432 188.502 437.666 188.579C437.899 188.656 438.149 188.696 438.401 188.696H454.897C455.407 188.696 455.897 188.535 456.258 188.248C456.619 187.962 456.822 187.574 456.823 187.169V174.098C456.821 173.694 456.618 173.306 456.257 173.02C455.896 172.734 455.407 172.573 454.897 172.572Z" fill="#FDFDFD"/>
<path d="M454.897 194.855H438.401C438.149 194.856 437.899 194.895 437.666 194.972C437.432 195.049 437.221 195.161 437.043 195.303C436.864 195.445 436.723 195.613 436.627 195.798C436.531 195.984 436.482 196.182 436.483 196.382V209.453C436.482 209.653 436.531 209.851 436.627 210.036C436.723 210.221 436.864 210.39 437.043 210.531C437.221 210.673 437.432 210.786 437.666 210.863C437.899 210.939 438.149 210.979 438.401 210.979H454.897C455.407 210.979 455.897 210.818 456.258 210.532C456.619 210.246 456.822 209.857 456.823 209.453V196.382C456.822 195.977 456.619 195.589 456.258 195.303C455.897 195.016 455.407 194.855 454.897 194.855Z" fill="#E6E6E6"/>
<path d="M489.532 105.721H473.037C472.527 105.723 472.039 105.884 471.679 106.17C471.32 106.457 471.118 106.844 471.118 107.248V120.325C471.118 120.728 471.32 121.115 471.68 121.4C472.04 121.685 472.528 121.845 473.037 121.845H489.532C490.042 121.846 490.531 121.686 490.892 121.4C491.253 121.115 491.456 120.728 491.458 120.325V107.248C491.457 106.844 491.253 106.456 490.892 106.17C490.531 105.884 490.042 105.723 489.532 105.721Z" fill="white"/>
<path d="M489.532 128.005H473.037C472.527 128.006 472.039 128.168 471.679 128.454C471.32 128.74 471.118 129.128 471.118 129.532V142.608C471.118 143.011 471.32 143.398 471.68 143.683C472.04 143.969 472.528 144.129 473.037 144.129H489.532C490.042 144.129 490.531 143.969 490.892 143.684C491.253 143.399 491.456 143.012 491.458 142.608V129.532C491.457 129.127 491.253 128.739 490.892 128.453C490.531 128.167 490.043 128.006 489.532 128.005Z" fill="white"/>
<path d="M489.532 150.288H473.037C472.527 150.29 472.039 150.451 471.679 150.737C471.32 151.024 471.118 151.411 471.118 151.815V164.886C471.117 165.086 471.167 165.284 471.263 165.469C471.359 165.654 471.5 165.823 471.678 165.964C471.856 166.106 472.068 166.219 472.301 166.296C472.534 166.372 472.784 166.412 473.037 166.412H489.532C490.043 166.412 490.533 166.251 490.894 165.965C491.255 165.679 491.458 165.291 491.458 164.886V151.815C491.457 151.411 491.253 151.023 490.892 150.737C490.531 150.451 490.043 150.29 489.532 150.288Z" fill="#FDFDFD"/>
<path d="M489.532 172.572H473.037C472.527 172.573 472.039 172.735 471.679 173.021C471.32 173.307 471.118 173.695 471.118 174.098V187.169C471.117 187.369 471.167 187.568 471.263 187.753C471.359 187.938 471.5 188.106 471.678 188.248C471.856 188.39 472.068 188.502 472.301 188.579C472.534 188.656 472.784 188.696 473.037 188.696H489.532C490.043 188.696 490.533 188.535 490.894 188.248C491.255 187.962 491.458 187.574 491.458 187.169V174.098C491.457 173.694 491.253 173.306 490.892 173.02C490.531 172.734 490.043 172.573 489.532 172.572Z" fill="#E6E6E6"/>
<path d="M489.532 194.855H473.037C472.784 194.856 472.534 194.895 472.301 194.972C472.068 195.049 471.856 195.161 471.678 195.303C471.5 195.445 471.359 195.613 471.263 195.798C471.167 195.984 471.117 196.182 471.118 196.382V209.453C471.117 209.653 471.167 209.851 471.263 210.036C471.359 210.221 471.5 210.39 471.678 210.531C471.856 210.673 472.068 210.786 472.301 210.863C472.534 210.939 472.784 210.979 473.037 210.979H489.532C490.043 210.979 490.533 210.818 490.894 210.532C491.255 210.246 491.458 209.857 491.458 209.453V196.382C491.458 195.977 491.255 195.589 490.894 195.303C490.533 195.016 490.043 194.856 489.532 194.855Z" fill="white"/>
<path d="M524.168 105.721H507.672C507.163 105.723 506.675 105.884 506.315 106.17C505.955 106.457 505.753 106.844 505.754 107.248V120.325C505.754 120.728 505.956 121.115 506.316 121.4C506.675 121.685 507.163 121.845 507.672 121.845H524.168C524.677 121.846 525.166 121.686 525.527 121.4C525.888 121.115 526.092 120.728 526.094 120.325V107.248C526.092 106.844 525.889 106.456 525.528 106.17C525.167 105.884 524.678 105.723 524.168 105.721Z" fill="#FDFDFD"/>
<path d="M524.168 128.005H507.672C507.163 128.006 506.674 128.168 506.315 128.454C505.955 128.74 505.753 129.128 505.754 129.532V142.608C505.754 143.011 505.956 143.398 506.316 143.683C506.675 143.969 507.163 144.129 507.672 144.129H524.168C524.677 144.129 525.166 143.969 525.527 143.684C525.888 143.399 526.092 143.012 526.094 142.608V129.532C526.092 129.127 525.889 128.739 525.528 128.453C525.167 128.167 524.678 128.006 524.168 128.005Z" fill="#FDFDFD"/>
<path d="M524.168 150.288H507.672C507.163 150.29 506.674 150.451 506.315 150.737C505.955 151.024 505.753 151.411 505.754 151.815V164.886C505.753 165.086 505.802 165.284 505.898 165.469C505.994 165.654 506.135 165.823 506.314 165.964C506.492 166.106 506.703 166.219 506.937 166.296C507.17 166.372 507.42 166.412 507.672 166.412H524.168C524.678 166.412 525.168 166.251 525.529 165.965C525.89 165.679 526.093 165.291 526.094 164.886V151.815C526.092 151.411 525.889 151.023 525.528 150.737C525.167 150.451 524.678 150.29 524.168 150.288Z" fill="#E6E6E6"/>
<path d="M524.168 172.572H507.672C507.163 172.573 506.675 172.735 506.315 173.021C505.955 173.307 505.753 173.695 505.754 174.098V187.169C505.753 187.369 505.802 187.568 505.898 187.753C505.994 187.938 506.135 188.106 506.314 188.248C506.492 188.39 506.703 188.502 506.937 188.579C507.17 188.656 507.42 188.696 507.672 188.696H524.168C524.678 188.696 525.168 188.535 525.529 188.248C525.89 187.962 526.093 187.574 526.094 187.169V174.098C526.092 173.694 525.889 173.306 525.528 173.02C525.167 172.734 524.678 172.573 524.168 172.572Z" fill="white"/>
<path d="M524.168 194.855H507.672C507.42 194.856 507.17 194.895 506.937 194.972C506.703 195.049 506.492 195.161 506.314 195.303C506.135 195.445 505.994 195.613 505.898 195.798C505.802 195.984 505.753 196.182 505.754 196.382V209.453C505.753 209.653 505.802 209.851 505.898 210.036C505.994 210.221 506.135 210.39 506.314 210.531C506.492 210.673 506.703 210.786 506.937 210.863C507.17 210.939 507.42 210.979 507.672 210.979H524.168C524.678 210.979 525.168 210.818 525.529 210.532C525.89 210.246 526.093 209.857 526.094 209.453V196.382C526.093 195.977 525.89 195.589 525.529 195.303C525.168 195.016 524.678 194.856 524.168 194.855Z" fill="#FDFDFD"/>
<path d="M558.803 105.721H542.308C541.798 105.723 541.31 105.884 540.95 106.17C540.591 106.457 540.389 106.844 540.389 107.248V120.325C540.389 120.728 540.591 121.115 540.951 121.4C541.311 121.685 541.799 121.845 542.308 121.845H558.803C559.313 121.846 559.802 121.686 560.163 121.4C560.524 121.115 560.727 120.728 560.729 120.325V107.248C560.727 106.844 560.524 106.456 560.163 106.17C559.802 105.884 559.313 105.723 558.803 105.721Z" fill="#FDFDFD"/>
<path d="M558.803 128.005H542.308C541.798 128.006 541.31 128.168 540.95 128.454C540.591 128.74 540.389 129.128 540.389 129.532V142.608C540.389 143.011 540.591 143.398 540.951 143.683C541.311 143.969 541.799 144.129 542.308 144.129H558.803C559.313 144.129 559.802 143.969 560.163 143.684C560.524 143.399 560.727 143.012 560.729 142.608V129.532C560.728 129.127 560.524 128.739 560.163 128.453C559.802 128.167 559.313 128.006 558.803 128.005Z" fill="#FDFDFD"/>
<path d="M558.803 150.288H542.308C541.798 150.29 541.31 150.451 540.95 150.737C540.591 151.024 540.389 151.411 540.389 151.815V164.886C540.388 165.086 540.438 165.284 540.534 165.469C540.63 165.654 540.771 165.823 540.949 165.964C541.127 166.106 541.339 166.219 541.572 166.296C541.805 166.372 542.055 166.412 542.308 166.412H558.803C559.314 166.412 559.804 166.251 560.165 165.965C560.526 165.679 560.729 165.291 560.729 164.886V151.815C560.728 151.411 560.524 151.023 560.163 150.737C559.802 150.451 559.313 150.29 558.803 150.288Z" fill="#E6E6E6"/>
<path d="M558.803 172.572H542.308C541.798 172.573 541.31 172.735 540.95 173.021C540.591 173.307 540.389 173.695 540.389 174.098V187.169C540.388 187.369 540.438 187.568 540.534 187.753C540.63 187.938 540.771 188.106 540.949 188.248C541.127 188.39 541.339 188.502 541.572 188.579C541.805 188.656 542.055 188.696 542.308 188.696H558.803C559.314 188.696 559.804 188.535 560.165 188.248C560.526 187.962 560.729 187.574 560.729 187.169V174.098C560.728 173.694 560.524 173.306 560.163 173.02C559.802 172.734 559.313 172.573 558.803 172.572Z" fill="#FDFDFD"/>
<path d="M558.803 194.855H542.308C542.055 194.856 541.805 194.895 541.572 194.972C541.339 195.049 541.127 195.161 540.949 195.303C540.771 195.445 540.63 195.613 540.534 195.798C540.438 195.984 540.388 196.182 540.389 196.382V209.453C540.388 209.653 540.438 209.851 540.534 210.036C540.63 210.221 540.771 210.39 540.949 210.531C541.127 210.673 541.339 210.786 541.572 210.863C541.805 210.939 542.055 210.979 542.308 210.979H558.803C559.314 210.979 559.804 210.818 560.165 210.532C560.526 210.246 560.729 209.857 560.729 209.453V196.382C560.729 195.977 560.526 195.589 560.165 195.303C559.804 195.016 559.314 194.856 558.803 194.855Z" fill="#FDFDFD"/>
<path d="M593.439 105.721H576.943C576.434 105.723 575.946 105.884 575.586 106.17C575.226 106.457 575.024 106.844 575.025 107.248V120.325C575.025 120.728 575.227 121.115 575.587 121.4C575.946 121.685 576.434 121.845 576.943 121.845H593.439C593.948 121.846 594.437 121.686 594.798 121.4C595.159 121.115 595.363 120.728 595.364 120.325V107.248C595.363 106.844 595.16 106.456 594.799 106.17C594.438 105.884 593.949 105.723 593.439 105.721Z" fill="#E6E6E6"/>
<path d="M593.439 128.005H576.943C576.434 128.006 575.945 128.168 575.586 128.454C575.226 128.74 575.024 129.128 575.025 129.532V142.608C575.025 143.011 575.227 143.398 575.587 143.683C575.946 143.969 576.434 144.129 576.943 144.129H593.439C593.948 144.129 594.437 143.969 594.798 143.684C595.159 143.399 595.363 143.012 595.364 142.608V129.532C595.363 129.127 595.16 128.739 594.799 128.453C594.438 128.167 593.949 128.006 593.439 128.005Z" fill="#FDFDFD"/>
<path d="M593.439 150.288H576.943C576.434 150.29 575.945 150.451 575.586 150.737C575.226 151.024 575.024 151.411 575.025 151.815V164.886C575.024 165.086 575.073 165.284 575.169 165.469C575.265 165.654 575.406 165.823 575.585 165.964C575.763 166.106 575.974 166.219 576.208 166.296C576.441 166.372 576.691 166.412 576.943 166.412H593.439C593.949 166.412 594.439 166.251 594.8 165.965C595.161 165.679 595.364 165.291 595.364 164.886V151.815C595.363 151.411 595.16 151.023 594.799 150.737C594.438 150.451 593.949 150.29 593.439 150.288Z" fill="#FDFDFD"/>
<path d="M593.439 172.572H576.943C576.434 172.573 575.945 172.735 575.586 173.021C575.226 173.307 575.024 173.695 575.025 174.098V187.169C575.024 187.369 575.073 187.568 575.169 187.753C575.265 187.938 575.406 188.106 575.585 188.248C575.763 188.39 575.974 188.502 576.208 188.579C576.441 188.656 576.691 188.696 576.943 188.696H593.439C593.949 188.696 594.439 188.535 594.8 188.248C595.161 187.962 595.364 187.574 595.364 187.169V174.098C595.363 173.694 595.16 173.306 594.799 173.02C594.438 172.734 593.949 172.573 593.439 172.572Z" fill="#FDFDFD"/>
<path d="M593.439 194.855H576.943C576.691 194.856 576.441 194.895 576.208 194.972C575.974 195.049 575.763 195.161 575.585 195.303C575.406 195.445 575.265 195.613 575.169 195.798C575.073 195.984 575.024 196.182 575.025 196.382V209.453C575.024 209.653 575.073 209.851 575.169 210.036C575.265 210.221 575.406 210.39 575.585 210.531C575.763 210.673 575.974 210.786 576.208 210.863C576.441 210.939 576.691 210.979 576.943 210.979H593.439C593.949 210.979 594.439 210.818 594.8 210.532C595.161 210.246 595.364 209.857 595.364 209.453V196.382C595.364 195.977 595.161 195.589 594.8 195.303C594.439 195.016 593.949 194.856 593.439 194.855Z" fill="#E6E6E6"/>
<path d="M628.074 105.721H611.579C611.069 105.723 610.581 105.884 610.221 106.17C609.862 106.457 609.66 106.844 609.66 107.248V120.325C609.66 120.728 609.862 121.115 610.222 121.4C610.582 121.685 611.07 121.845 611.579 121.845H628.074C628.584 121.846 629.073 121.686 629.434 121.4C629.794 121.115 629.998 120.728 630 120.325V107.248C629.998 106.844 629.795 106.456 629.434 106.17C629.073 105.884 628.584 105.723 628.074 105.721Z" fill="#E6E6E6"/>
<path d="M628.074 128.005H611.579C611.069 128.006 610.581 128.168 610.221 128.454C609.862 128.74 609.66 129.128 609.66 129.532V142.608C609.66 143.011 609.862 143.398 610.222 143.683C610.582 143.969 611.07 144.129 611.579 144.129H628.074C628.584 144.129 629.073 143.969 629.434 143.684C629.794 143.399 629.998 143.012 630 142.608V129.532C629.998 129.127 629.795 128.739 629.434 128.453C629.073 128.167 628.584 128.006 628.074 128.005Z" fill="#E6E6E6"/>
<path d="M628.074 150.288H611.579C611.069 150.29 610.581 150.451 610.221 150.737C609.862 151.024 609.66 151.411 609.66 151.815V164.886C609.659 165.086 609.708 165.284 609.805 165.469C609.901 165.654 610.042 165.823 610.22 165.964C610.398 166.106 610.61 166.219 610.843 166.296C611.076 166.372 611.326 166.412 611.579 166.412H628.074C628.585 166.412 629.074 166.251 629.436 165.965C629.797 165.679 630 165.291 630 164.886V151.815C629.998 151.411 629.795 151.023 629.434 150.737C629.073 150.451 628.584 150.29 628.074 150.288Z" fill="#FDFDFD"/>
<path d="M628.074 172.572H611.579C611.069 172.573 610.581 172.735 610.221 173.021C609.862 173.307 609.66 173.695 609.66 174.098V187.169C609.659 187.369 609.708 187.568 609.805 187.753C609.901 187.938 610.042 188.106 610.22 188.248C610.398 188.39 610.61 188.502 610.843 188.579C611.076 188.656 611.326 188.696 611.579 188.696H628.074C628.585 188.696 629.074 188.535 629.436 188.248C629.797 187.962 630 187.574 630 187.169V174.098C629.998 173.694 629.795 173.306 629.434 173.02C629.073 172.734 628.584 172.573 628.074 172.572Z" fill="#E6E6E6"/>
<path d="M628.074 194.855H611.579C611.326 194.856 611.076 194.895 610.843 194.972C610.61 195.049 610.398 195.161 610.22 195.303C610.042 195.445 609.901 195.613 609.805 195.798C609.708 195.984 609.659 196.182 609.66 196.382V209.453C609.659 209.653 609.708 209.851 609.805 210.036C609.901 210.221 610.042 210.39 610.22 210.531C610.398 210.673 610.61 210.786 610.843 210.863C611.076 210.939 611.326 210.979 611.579 210.979H628.074C628.585 210.979 629.074 210.818 629.436 210.532C629.797 210.246 630 209.857 630 209.453V196.382C630 195.977 629.797 195.589 629.436 195.303C629.074 195.016 628.585 194.856 628.074 194.855Z" fill="#E6E6E6"/>
<path d="M248.947 387.57H248.489L248.881 387.527L248.947 387.57Z" fill="#2F2E41"/>
<path d="M209.483 143.891C237.432 143.891 260.089 125.93 260.089 103.774C260.089 81.6178 237.432 63.6567 209.483 63.6567C181.534 63.6567 158.876 81.6178 158.876 103.774C158.876 125.93 181.534 143.891 209.483 143.891Z" fill="#CF9F7B"/>
<path d="M253.8 74.3606C253.8 74.3606 267.036 54.302 237.917 52.4785C237.917 52.4785 213.092 34.6269 187.789 49.215C187.789 49.215 173.987 49.215 166.44 61.596C166.44 61.596 155.585 58.3325 153.199 67.0666C153.199 67.0666 145.256 85.3017 153.199 101.713C161.142 118.125 163.781 119.948 163.781 119.948C163.781 119.948 150.729 85.5406 182.498 83.717C214.268 81.8935 249.819 66.1548 252.466 86.2134C255.114 106.272 259.098 111.214 259.098 111.214C259.098 111.214 284.245 82.5665 253.8 74.3606Z" fill="#2F2E41"/>
<path d="M340.391 202.641L340.228 203.322L338.398 210.979L325.754 263.943L325.006 267.061L323.436 273.655L321.288 282.65L316.525 302.585L315.162 308.298L314.651 310.442L314.473 311.193L313.059 317.106L312.629 318.891L309.177 339.166L306.163 356.835L316.251 364.832L310.236 369.6L306.289 387.526L306.296 387.568H145.17C138.652 384.221 132.227 380.77 125.897 377.216L127.223 369.347C127.223 369.347 131.785 355.296 129.867 353.617C127.956 351.938 123.763 348.937 123.763 348.937L129.045 339.166L129.778 337.81L128.548 317.593L128.519 317.106L128.111 310.442L128.06 309.584L127.978 308.298L126.415 282.65L126.386 282.228L125.912 274.453L125.467 267.061L125.274 263.943L123.371 232.746L122.082 211.561L120.956 193.117L125.482 191.902L173.887 178.86L193.938 158.198L235.67 158.444L256.098 158.568L290.186 183.628L297.941 186.564L298 186.588L303.563 188.696L317.666 194.033L332.576 199.682L340.228 202.577L340.391 202.641Z" fill="#CACACA"/>
<path d="M199.331 327.382C196.273 328.322 192.992 328.718 189.72 328.543C186.448 328.369 183.264 327.627 180.392 326.372C177.521 325.116 175.031 323.376 173.099 321.276C171.167 319.175 169.84 316.764 169.211 314.212L90.282 305.335L117.72 280.731L188.466 292.933C193.943 292.379 199.486 293.437 204.045 295.907C208.604 298.376 211.861 302.086 213.201 306.332C214.54 310.578 213.868 315.067 211.312 318.946C208.755 322.826 204.492 325.828 199.331 327.383V327.382Z" fill="#FFB6B6"/>
<path d="M164.139 282.65C162.677 281.181 160.607 280.168 158.295 279.791L125.911 274.453L122.586 273.907C120.653 273.588 118.827 272.948 117.228 272.03C115.628 271.112 114.291 269.937 113.305 268.582C112.281 267.158 111.662 265.575 111.49 263.943C111.335 262.459 111.56 260.965 112.149 259.551L123.371 232.746L130.652 215.354C131.534 213.256 132.055 211.074 132.2 208.865C132.606 202.755 130.221 196.732 125.482 191.902C121.316 187.656 115.537 184.585 109 183.143C102.463 181.701 95.5139 181.964 89.1797 183.893C88.9945 183.946 88.8019 184.004 88.6168 184.063C84.0742 185.501 80.0157 187.756 76.7621 190.652C73.5084 193.547 71.1487 197.002 69.8695 200.745L61.9587 223.557L45.6409 270.584C44.0074 275.296 43.6774 280.231 44.6735 285.054C45.6695 289.876 47.9682 294.471 51.412 298.523C54.8558 302.576 59.3636 305.991 64.6267 308.534C69.8898 311.078 75.784 312.69 81.906 313.26L128.548 317.593L150.132 319.602C152.628 319.839 155.146 319.323 157.183 318.155C159.22 316.988 160.627 315.255 161.125 313.301C161.16 313.195 161.187 313.087 161.206 312.978L161.725 310.442L166.117 289.08L166.161 288.863C166.39 287.773 166.329 286.657 165.98 285.587C165.632 284.517 165.005 283.517 164.139 282.65Z" fill="#CACACA"/>
<path d="M249.606 328.067C252.8 328.655 256.119 328.681 259.327 328.142C262.535 327.603 265.556 326.514 268.175 324.949C270.795 323.385 272.95 321.385 274.489 319.089C276.028 316.793 276.913 314.258 277.082 311.661L353.643 294.05L322.102 272.759L254.234 292.747C248.713 292.811 243.413 294.478 239.339 297.433C235.265 300.387 232.7 304.424 232.13 308.778C231.559 313.131 233.023 317.5 236.244 321.055C239.465 324.61 244.219 327.105 249.606 328.067V328.067Z" fill="#FFB6B6"/>
<path d="M391.655 254.654L355.242 188.22C352.263 182.766 346.944 178.325 340.228 175.684C338.152 174.874 335.971 174.244 333.724 173.805C333.376 173.734 333.028 173.67 332.68 173.617C327.915 172.793 322.974 172.865 318.251 173.828C313.934 174.708 309.899 176.298 306.41 178.497C302.92 180.695 300.055 183.452 298 186.588C297.977 186.614 297.958 186.641 297.941 186.67C295.645 190.19 294.425 194.088 294.377 198.05C294.33 202.012 295.456 205.928 297.667 209.482L298.119 210.198L323.851 251.166C324.729 252.567 325.224 254.099 325.303 255.662C325.382 257.226 325.044 258.784 324.309 260.237C323.575 261.689 322.461 263.001 321.042 264.088C319.623 265.175 317.929 266.012 316.073 266.544L314.266 267.061L281.764 276.368C279.325 277.057 277.319 278.471 276.168 280.309C275.017 282.148 274.811 284.269 275.594 286.226L275.675 286.432L284.786 309.543C284.83 309.649 284.875 309.755 284.926 309.86C285.007 310.06 285.106 310.254 285.223 310.442C286.191 312.163 287.902 313.554 290.049 314.365C292.196 315.175 294.637 315.352 296.933 314.863L314.473 311.193L318.051 310.442L363.345 300.959C369.305 299.71 374.854 297.456 379.613 294.349C384.371 291.243 388.227 287.358 390.915 282.96C393.604 278.563 395.062 273.757 395.189 268.871C395.317 263.985 394.112 259.136 391.655 254.654Z" fill="#CACACA"/>
<path d="M33.2563 310.442C43.7524 320.59 55.0722 330.186 67.1437 339.166H401.921C405.147 339.17 408.238 340.188 410.518 341.997C412.798 343.805 414.081 346.257 414.084 348.814L414.565 416.063C435.16 408.563 454.447 398.985 471.948 387.568C476.807 384.403 481.515 381.101 486.073 377.662C489.058 375.419 491.972 373.121 494.813 370.768C516.119 353.174 533.372 332.756 545.789 310.442H33.2563Z" fill="#3F3D56"/>
<path d="M494.813 370.768C491.976 373.123 489.063 375.421 486.073 377.662H414.81V370.768H494.813Z" fill="white"/>
<path d="M339.724 150.288C339.372 149.773 338.851 149.343 338.216 149.043C337.581 148.744 336.856 148.585 336.117 148.586H93.2832C92.1945 148.588 91.1513 148.932 90.3821 149.543C89.613 150.154 89.1806 150.981 89.1797 151.844V267.061H340.228V151.844C340.232 151.3 340.058 150.764 339.724 150.288Z" fill="#3F3D56"/>
<path d="M88.9598 263.941V278.159C88.9598 278.749 89.1063 279.332 89.3908 279.877C89.6753 280.421 90.0924 280.916 90.6181 281.333C91.1439 281.75 91.7681 282.08 92.455 282.306C93.1419 282.532 93.8782 282.648 94.6217 282.648H187.282V310.707H186.051C185.954 310.707 185.859 310.722 185.769 310.751C185.68 310.781 185.599 310.824 185.531 310.878C185.462 310.932 185.408 310.996 185.371 311.067C185.334 311.138 185.315 311.213 185.315 311.29V313.242C185.315 313.318 185.334 313.394 185.371 313.465C185.408 313.536 185.462 313.6 185.531 313.654C185.599 313.708 185.68 313.751 185.769 313.78C185.859 313.81 185.954 313.825 186.051 313.825H243.573C243.67 313.825 243.765 313.81 243.854 313.78C243.944 313.751 244.025 313.708 244.093 313.654C244.161 313.6 244.216 313.536 244.253 313.465C244.289 313.394 244.308 313.318 244.308 313.242V311.29C244.308 311.213 244.289 311.138 244.253 311.067C244.216 310.996 244.161 310.932 244.093 310.878C244.025 310.824 243.944 310.781 243.854 310.751C243.765 310.722 243.67 310.707 243.573 310.707H242.342V282.648H335.002C335.746 282.648 336.482 282.532 337.169 282.306C337.856 282.08 338.48 281.75 339.006 281.333C339.531 280.916 339.948 280.421 340.233 279.877C340.517 279.332 340.664 278.749 340.664 278.159V263.941H88.9598Z" fill="#3F3D56"/>
<path d="M211.77 223.134C224.577 223.134 234.959 214.904 234.959 204.752C234.959 194.599 224.577 186.369 211.77 186.369C198.964 186.369 188.582 194.599 188.582 204.752C188.582 214.904 198.964 223.134 211.77 223.134Z" fill="#FDFDFD"/>
<path d="M270.853 101.582H267.15C267.15 79.3864 239.44 64.842 211.485 64.8303C207.419 64.8208 203.362 65.1336 199.375 65.7639C194.886 66.4744 190.227 67.3258 185.649 68.4355C167.598 72.8218 150.858 81.3006 150.858 101.582C150.855 105.521 151.487 109.444 152.74 113.255L149.155 113.995C147.825 109.941 147.153 105.77 147.155 101.582C147.155 83.8607 156.332 71.6885 172.183 64.431C180.516 60.6143 190.686 58.154 202.338 56.9562C207.186 56.4448 212.088 56.3268 216.967 56.6039C249.113 58.4358 270.853 77.9772 270.853 101.582Z" fill="#FDFDFD"/>
<path d="M277.023 103.208L275.564 94.6589C275.204 92.4999 273.892 90.5114 271.86 89.0455C270.556 88.0899 268.995 87.3818 267.295 86.9749C265.594 86.568 263.8 86.4729 262.046 86.6968L259.728 86.9493C259.093 87.0155 258.482 87.1809 257.929 87.4359C257.376 87.6909 256.892 88.0305 256.506 88.4348C256.116 88.8379 255.831 89.2981 255.667 89.7889C255.503 90.2797 255.463 90.7914 255.55 91.2944L258.92 110.988C259.059 111.791 259.513 112.539 260.218 113.126C260.922 113.713 261.842 114.109 262.846 114.259C263.144 114.306 263.446 114.33 263.75 114.329C263.968 114.329 264.186 114.318 264.402 114.294L266.994 114.018C268.575 113.852 270.096 113.431 271.464 112.782C272.832 112.133 274.018 111.269 274.949 110.243C275.149 110.02 275.342 109.791 275.52 109.556C276.908 107.634 277.438 105.398 277.023 103.208Z" fill="#FDFDFD"/>
<path d="M258.231 87.3075C257.551 87.5694 256.96 87.9558 256.506 88.4349C256.116 88.8379 255.831 89.2981 255.667 89.7889C255.503 90.2797 255.463 90.7914 255.55 91.2944L258.92 110.988C259.059 111.791 259.513 112.539 260.218 113.126C260.922 113.713 261.842 114.109 262.846 114.259L258.231 87.3075Z" fill="white"/>
<path d="M277.023 103.208L275.564 94.6589C275.204 92.4999 273.892 90.5114 271.86 89.0455L275.216 108.64C275.266 108.954 275.368 109.262 275.519 109.556C276.908 107.634 277.438 105.398 277.023 103.208Z" fill="#3F3D56"/>
<path d="M265.491 109.368C266.504 109.259 267.014 107.347 266.629 105.098C266.244 102.849 265.11 101.113 264.097 101.222C263.083 101.331 262.574 103.243 262.959 105.493C263.344 107.742 264.477 109.477 265.491 109.368Z" fill="#3F3D56"/>
<path d="M263.269 98.799C264.282 98.69 264.791 96.7781 264.406 94.5287C264.022 92.2793 262.888 90.5441 261.875 90.6531C260.861 90.7621 260.352 92.6739 260.737 94.9234C261.121 97.1728 262.255 98.908 263.269 98.799Z" fill="#3F3D56"/>
<path d="M277.342 102.909C278.355 102.8 278.865 100.888 278.48 98.639C278.095 96.3895 276.961 94.6544 275.948 94.7633C274.934 94.8723 274.425 96.7842 274.81 99.0336C275.195 101.283 276.328 103.018 277.342 102.909Z" fill="#3F3D56"/>
<path d="M211.485 64.8302C207.419 64.8208 203.362 65.1336 199.375 65.7639C194.886 66.4743 190.227 67.3258 185.65 68.4355C178.502 68.1595 173.243 66.6916 172.183 64.431C180.516 60.6143 190.686 58.154 202.338 56.9562C207.186 56.4448 212.088 56.3268 216.967 56.6039C217.483 56.8439 217.93 57.1678 218.277 57.5544C218.624 57.941 218.864 58.3815 218.981 58.8469C219.329 60.8903 216.389 63.0628 211.485 64.8302Z" fill="#3F3D56"/>
<path d="M164.199 121.957L158.495 103.161C158.292 102.483 157.84 101.868 157.197 101.393C156.554 100.917 155.748 100.603 154.88 100.49C154.635 100.459 154.388 100.444 154.14 100.443C153.79 100.444 153.442 100.477 153.103 100.543L150.895 100.965C148.054 101.51 145.6 102.927 144.074 104.904C142.548 106.881 142.074 109.257 142.755 111.511L145.311 119.943C145.894 121.928 147.284 123.706 149.266 125.004C149.587 125.21 149.924 125.4 150.273 125.574C151.515 126.191 152.9 126.604 154.346 126.79C155.793 126.975 157.271 126.929 158.695 126.654L160.895 126.232C161.477 126.124 162.024 125.922 162.502 125.639C163.214 125.227 163.755 124.658 164.057 124.002C164.359 123.347 164.408 122.635 164.199 121.957Z" fill="#FDFDFD"/>
<path d="M152.242 118.46C153.236 118.27 153.499 116.327 152.829 114.12C152.159 111.913 150.81 110.278 149.816 110.467C148.821 110.657 148.558 112.6 149.228 114.807C149.898 117.014 151.247 118.649 152.242 118.46Z" fill="#3F3D56"/>
<path d="M144.835 120.221C145.829 120.032 146.092 118.089 145.422 115.882C144.752 113.675 143.403 112.039 142.409 112.229C141.414 112.419 141.151 114.362 141.821 116.569C142.491 118.776 143.841 120.411 144.835 120.221Z" fill="#3F3D56"/>
<path d="M164.561 121.886L158.858 103.091C158.636 102.357 158.146 101.692 157.449 101.178C156.752 100.664 155.879 100.325 154.94 100.202L162.725 125.873C163.493 125.427 164.078 124.81 164.405 124.101C164.732 123.391 164.786 122.621 164.561 121.886Z" fill="white"/>
<path d="M144.044 107.788C143.886 107.266 143.591 106.775 143.177 106.35C142.376 107.996 142.228 109.797 142.755 111.511L145.31 119.943C145.894 121.928 147.284 123.706 149.266 125.004L144.044 107.788Z" fill="#3F3D56"/>
</g>
<defs>
<clipPath id="clip0_2_1345">
<rect width="630" height="435" fill="white"/>
</clipPath>
</defs>
</svg>
