<svg width="88" height="69" viewBox="0 0 88 69" fill="none" xmlns="http://www.w3.org/2000/svg">
<g clip-path="url(#clip0_3_309)">
<path d="M9.70767 9.01735C9.54164 4.32603 13.2564 0 18.2775 0H69.7288C74.75 0 78.4647 4.32603 78.2987 9.01735C78.1392 13.5238 78.3463 19.3614 79.8394 24.1213C81.3373 28.8958 83.8631 31.9137 88 32.3015V36.6985C83.8631 37.0863 81.3373 40.1042 79.8394 44.8787C78.3463 49.6386 78.1392 55.4762 78.2987 59.9828C78.4647 64.674 74.75 69 69.7288 69H18.2775C13.2564 69 9.54164 64.674 9.70784 59.9828C9.86717 55.4762 9.66006 49.6386 8.16681 44.8787C6.66909 40.1042 4.13703 37.0863 0 36.6985V32.3015C4.13686 31.9137 6.66909 28.8958 8.16681 24.1213C9.66006 19.3614 9.86717 13.5238 9.70767 9.01735Z" fill="#00010B"/>
<g filter="url(#filter0_d_3_309)">
<path d="M45.9083 52.842C54.0374 52.842 58.936 48.9256 58.936 42.4658C58.936 37.5828 55.4408 34.0478 50.2508 33.4882V33.2847C54.0639 32.6744 57.0561 29.1902 57.0561 25.2992C57.0561 19.755 52.6076 16.1435 45.8288 16.1435H30.5767V52.842H45.9083ZM36.5081 20.7976H44.399C48.6887 20.7976 51.1247 22.6795 51.1247 26.0874C51.1247 29.7243 48.2915 31.7588 43.1545 31.7588H36.5081V20.7976ZM36.5081 48.188V36.1078H44.3459C49.9595 36.1078 52.8723 38.1423 52.8723 42.1098C52.8723 46.0771 50.0391 48.188 44.6902 48.188H36.5081Z" fill="#FFFEFF"/>
<path d="M45.9083 52.842C54.0374 52.842 58.936 48.9256 58.936 42.4658C58.936 37.5828 55.4408 34.0478 50.2508 33.4882V33.2847C54.0639 32.6744 57.0561 29.1902 57.0561 25.2992C57.0561 19.755 52.6076 16.1435 45.8288 16.1435H30.5767V52.842H45.9083ZM36.5081 20.7976H44.399C48.6887 20.7976 51.1247 22.6795 51.1247 26.0874C51.1247 29.7243 48.2915 31.7588 43.1545 31.7588H36.5081V20.7976ZM36.5081 48.188V36.1078H44.3459C49.9595 36.1078 52.8723 38.1423 52.8723 42.1098C52.8723 46.0771 50.0391 48.188 44.6902 48.188H36.5081Z" stroke="#FFFEFF"/>
</g>
</g>
<defs>
<filter id="filter0_d_3_309" x="14.0767" y="3.64346" width="61.3594" height="69.6985" filterUnits="userSpaceOnUse" color-interpolation-filters="sRGB">
<feFlood flood-opacity="0" result="BackgroundImageFix"/>
<feColorMatrix in="SourceAlpha" type="matrix" values="0 0 0 0 0 0 0 0 0 0 0 0 0 0 0 0 0 0 127 0" result="hardAlpha"/>
<feOffset dy="4"/>
<feGaussianBlur stdDeviation="8"/>
<feColorMatrix type="matrix" values="0 0 0 0 0 0 0 0 0 0 0 0 0 0 0 0 0 0 0.15 0"/>
<feBlend mode="normal" in2="BackgroundImageFix" result="effect1_dropShadow_3_309"/>
<feBlend mode="normal" in="SourceGraphic" in2="effect1_dropShadow_3_309" result="shape"/>
</filter>
<clipPath id="clip0_3_309">
<rect width="88" height="69" fill="white"/>
</clipPath>
</defs>
</svg>
