<svg width="89" height="69" viewBox="0 0 89 69" fill="none" xmlns="http://www.w3.org/2000/svg">
<g clip-path="url(#clip0_379_27)">
<path d="M10.2077 9.01735C10.0416 4.32603 13.7564 0 18.7775 0H70.2288C75.25 0 78.9647 4.32603 78.7987 9.01735C78.6392 13.5238 78.8463 19.3614 80.3394 24.1213C81.8373 28.8958 84.3631 31.9137 88.5 32.3015V36.6985C84.3631 37.0863 81.8373 40.1042 80.3394 44.8787C78.8463 49.6386 78.6392 55.4762 78.7987 59.9828C78.9647 64.674 75.25 69 70.2288 69H18.7775C13.7564 69 10.0416 64.674 10.2078 59.9828C10.3672 55.4762 10.1601 49.6386 8.66681 44.8787C7.16909 40.1042 4.63703 37.0863 0.5 36.6985V32.3015C4.63686 31.9137 7.16909 28.8958 8.66681 24.1213C10.1601 19.3614 10.3672 13.5238 10.2077 9.01735V9.01735Z" fill="#011638"/>
<g filter="url(#filter0_d_379_27)">
<path d="M46.4083 52.842C54.5374 52.842 59.436 48.9256 59.436 42.4658C59.436 37.5828 55.9408 34.0478 50.7508 33.4882V33.2847C54.5639 32.6744 57.5561 29.1902 57.5561 25.2992C57.5561 19.755 53.1076 16.1435 46.3288 16.1435H31.0767V52.842H46.4083ZM37.0081 20.7976H44.899C49.1887 20.7976 51.6247 22.6795 51.6247 26.0874C51.6247 29.7243 48.7915 31.7588 43.6545 31.7588H37.0081V20.7976V20.7976ZM37.0081 48.188V36.1078H44.8459C50.4595 36.1078 53.3723 38.1423 53.3723 42.1098C53.3723 46.0771 50.5391 48.188 45.1902 48.188H37.0081V48.188Z" fill="url(#paint0_linear_379_27)"/>
<path d="M46.4083 52.842C54.5374 52.842 59.436 48.9256 59.436 42.4658C59.436 37.5828 55.9408 34.0478 50.7508 33.4882V33.2847C54.5639 32.6744 57.5561 29.1902 57.5561 25.2992C57.5561 19.755 53.1076 16.1435 46.3288 16.1435H31.0767V52.842H46.4083ZM37.0081 20.7976H44.899C49.1887 20.7976 51.6247 22.6795 51.6247 26.0874C51.6247 29.7243 48.7915 31.7588 43.6545 31.7588H37.0081V20.7976V20.7976ZM37.0081 48.188V36.1078H44.8459C50.4595 36.1078 53.3723 38.1423 53.3723 42.1098C53.3723 46.0771 50.5391 48.188 45.1902 48.188H37.0081V48.188Z" stroke="white"/>
</g>
</g>
<defs>
<filter id="filter0_d_379_27" x="14.5767" y="3.64346" width="61.3594" height="69.6985" filterUnits="userSpaceOnUse" color-interpolation-filters="sRGB">
<feFlood flood-opacity="0" result="BackgroundImageFix"/>
<feColorMatrix in="SourceAlpha" type="matrix" values="0 0 0 0 0 0 0 0 0 0 0 0 0 0 0 0 0 0 127 0" result="hardAlpha"/>
<feOffset dy="4"/>
<feGaussianBlur stdDeviation="8"/>
<feColorMatrix type="matrix" values="0 0 0 0 0 0 0 0 0 0 0 0 0 0 0 0 0 0 0.15 0"/>
<feBlend mode="normal" in2="BackgroundImageFix" result="effect1_dropShadow_379_27"/>
<feBlend mode="normal" in="SourceGraphic" in2="effect1_dropShadow_379_27" result="shape"/>
</filter>
<linearGradient id="paint0_linear_379_27" x1="33.7591" y1="18.559" x2="50.5389" y2="47.4" gradientUnits="userSpaceOnUse">
<stop stop-color="white"/>
<stop offset="1" stop-color="#F1E5FC"/>
</linearGradient>
<clipPath id="clip0_379_27">
<rect width="88" height="69" fill="white" transform="translate(0.5)"/>
</clipPath>
</defs>
</svg>
