<svg width="67" height="84" viewBox="0 0 67 84" fill="none" xmlns="http://www.w3.org/2000/svg">
<g clip-path="url(#clip0_379_7)">
<path d="M66.2661 16.5083L60.2533 76.5211L33.2257 83.1969L6.27251 76.5305L0.266113 16.5083H66.2661Z" fill="#011638"/>
<path d="M55.1058 72.6997L60.2441 21.416H33.2661V78.0942L55.1058 72.6997Z" fill="#011638"/>
<path d="M14.0356 43.6774L14.7762 51.0388H33.2661V43.6774H14.0356Z" fill="#EBEBEB"/>
<path d="M33.2661 28.7776H33.2375H12.5476L13.2987 36.1391H33.2661V28.7776Z" fill="#EBEBEB"/>
<path d="M33.2661 70.4549V62.7959L33.2299 62.8045L24.0279 60.5907L23.4396 54.7196H18.9682H15.1454L16.303 66.2782L33.2281 70.4643L33.2661 70.4549Z" fill="#EBEBEB"/>
<path d="M43.4119 51.0388L42.4528 60.586L33.2375 62.8021V70.4608L50.1761 66.2782L50.3004 65.0345L52.242 45.6541L52.4436 43.6774L53.9353 28.7776H33.2375V36.1391H44.8803L44.1284 43.6774H33.2375V51.0388H43.4119Z" fill="white"/>
</g>
<defs>
<clipPath id="clip0_379_7">
<rect width="66" height="83" fill="white" transform="translate(0.266113 0.196899)"/>
</clipPath>
</defs>
</svg>
