<svg width="67" height="84" viewBox="0 0 67 84" fill="none" xmlns="http://www.w3.org/2000/svg">
<g clip-path="url(#clip0_3_274)">
<path d="M66.5 16.7545L60.4872 76.7672L33.4596 83.4431L6.5064 76.7766L0.5 16.7545H66.5Z" fill="#00010B"/>
<path d="M55.3396 72.9458L60.4779 21.6622H33.5V78.3403L55.3396 72.9458Z" fill="#00010B"/>
<path d="M14.2695 43.9235L15.0101 51.2849H33.5V43.9235H14.2695Z" fill="#FFFEFF"/>
<path d="M33.4999 29.0237H33.4714H12.7815L13.5326 36.3853H33.4999V29.0237Z" fill="#FFFEFF"/>
<path d="M33.4999 70.7011V63.0421L33.4637 63.0507L24.2617 60.8369L23.6734 54.9658H19.202H15.3792L16.5367 66.5243L33.4619 70.7105L33.4999 70.7011Z" fill="#FFFEFF"/>
<path d="M43.6458 51.2849L42.6867 60.8322L33.4714 63.0482V70.7069L50.41 66.5243L50.5343 65.2806L52.4759 45.9003L52.6775 43.9235L54.1691 29.0237H33.4714V36.3853H45.1141L44.3623 43.9235H33.4714V51.2849H43.6458Z" fill="#FFFEFF"/>
</g>
<defs>
<clipPath id="clip0_3_274">
<rect width="66" height="83" fill="white" transform="translate(0.5 0.443054)"/>
</clipPath>
</defs>
</svg>
