<svg width="94" height="84" viewBox="0 0 94 84" fill="none" xmlns="http://www.w3.org/2000/svg">
<g clip-path="url(#clip0_379_2)">
<path d="M19.8029 76.5504L13.8087 16.5051H79.7079L73.7138 76.518L46.7038 83.1969" fill="#011638"/>
<path d="M46.7583 78.0905V21.4332H73.6956L68.5552 72.6598" fill="#011638"/>
<path d="M26.0513 28.7768H46.7583V36.1365H35.097L35.8599 43.6746H46.7583V51.0182H28.3036L26.0513 28.7768ZM28.6669 54.7143H36.9497L37.531 60.5988L46.7583 62.8035V70.4875L29.8294 66.2727" fill="#EBEBEB"/>
<path d="M67.3926 28.7768H46.7219V36.1365H66.6297L67.3926 28.7768ZM65.885 43.6746H46.7219V51.0344H56.8938L55.9311 60.5988L46.7219 62.8035V70.4551L63.6145 66.2727" fill="white"/>
</g>
<defs>
<clipPath id="clip0_379_2">
<rect width="93" height="83" fill="white" transform="translate(0.258301 0.196899)"/>
</clipPath>
</defs>
</svg>
