<svg width="63" height="60" viewBox="0 0 63 60" fill="none" xmlns="http://www.w3.org/2000/svg">
<g clip-path="url(#clip0_379_16)">
<path d="M62.875 0H0.125V59.8H62.875V0Z" fill="#011638"/>
<path d="M42.2771 46.719C43.5411 48.6857 45.1855 50.1314 48.0939 50.1314C50.5372 50.1314 52.098 48.9677 52.098 47.3597C52.098 45.4328 50.4944 44.7503 47.8051 43.6293L46.331 43.0266C42.0759 41.299 39.2492 39.1348 39.2492 34.5597C39.2492 30.3452 42.6187 27.1369 47.8848 27.1369C51.6338 27.1369 54.3291 28.3803 56.2714 31.6361L51.6796 34.4458C50.6687 32.7182 49.578 32.0376 47.8848 32.0376C46.1576 32.0376 45.063 33.0817 45.063 34.4458C45.063 36.1315 46.1586 36.814 48.6886 37.8581L50.1627 38.4599C55.1727 40.5074 58.0015 42.5947 58.0015 47.2876C58.0015 52.3468 53.8311 55.1185 48.2304 55.1185C42.7542 55.1185 39.2163 52.6316 37.4852 49.372L42.2771 46.719ZM21.4471 47.2059C22.3734 48.7721 23.216 50.0963 25.242 50.0963C27.1793 50.0963 28.4014 49.3739 28.4014 46.5652V27.4577H34.2979V46.6412C34.2979 52.4598 30.7182 55.1081 25.493 55.1081C20.7718 55.1081 18.0377 52.7797 16.6472 49.9752L21.4471 47.2059Z" fill="white"/>
</g>
<defs>
<clipPath id="clip0_379_16">
<rect width="62.75" height="59.8" fill="white" transform="translate(0.125)"/>
</clipPath>
</defs>
</svg>
