<svg width="63" height="60" viewBox="0 0 63 60" fill="none" xmlns="http://www.w3.org/2000/svg">
<g clip-path="url(#clip0_3_269)">
<path d="M62.75 0H0V59.8H62.75V0Z" fill="#FDFDFD"/>
<path d="M42.1521 46.719C43.4161 48.6857 45.0605 50.1314 47.9689 50.1314C50.4122 50.1314 51.973 48.9677 51.973 47.3597C51.973 45.4328 50.3694 44.7503 47.6801 43.6293L46.206 43.0266C41.9509 41.299 39.1242 39.1348 39.1242 34.5597C39.1242 30.3452 42.4937 27.1369 47.7598 27.1369C51.5088 27.1369 54.2041 28.3803 56.1464 31.6361L51.5546 34.4458C50.5437 32.7182 49.453 32.0376 47.7598 32.0376C46.0326 32.0376 44.938 33.0817 44.938 34.4458C44.938 36.1315 46.0336 36.814 48.5636 37.8581L50.0377 38.4599C55.0477 40.5074 57.8765 42.5947 57.8765 47.2876C57.8765 52.3468 53.7061 55.1185 48.1054 55.1185C42.6292 55.1185 39.0913 52.6316 37.3602 49.372L42.1521 46.719ZM21.3221 47.2059C22.2484 48.7721 23.091 50.0963 25.117 50.0963C27.0543 50.0963 28.2764 49.3739 28.2764 46.5652V27.4577H34.1729V46.6412C34.1729 52.4598 30.5932 55.1081 25.368 55.1081C20.6468 55.1081 17.9127 52.7797 16.5222 49.9752L21.3221 47.2059Z" fill="#2D2D73"/>
</g>
<defs>
<clipPath id="clip0_3_269">
<rect width="62.75" height="59.8" fill="white"/>
</clipPath>
</defs>
</svg>
