<svg width="91" height="75" viewBox="0 0 91 75" fill="none" xmlns="http://www.w3.org/2000/svg">
<path d="M52.547 37.0287C52.547 40.7256 49.2628 43.7152 45.2017 43.7152C41.1406 43.7152 37.8564 40.7256 37.8564 37.0287C37.8564 33.3319 41.1406 30.3423 45.2017 30.3423C49.2628 30.3423 52.547 33.3319 52.547 37.0287Z" fill="#FDFDFD"/>
<path d="M45.2018 44.2295C40.8406 44.2295 37.2915 40.9988 37.2915 37.0287C37.2915 33.0586 40.8406 29.8279 45.2018 29.8279C49.5631 29.8279 53.1121 33.0586 53.1121 37.0287C53.1121 40.9988 49.5631 44.2295 45.2018 44.2295ZM45.2018 30.8566C41.463 30.8566 38.4215 33.6252 38.4215 37.0287C38.4215 40.4322 41.463 43.2008 45.2018 43.2008C48.9407 43.2008 51.9821 40.4322 51.9821 37.0287C51.9821 33.6252 48.9407 30.8566 45.2018 30.8566Z" fill="#FDFDFD"/>
<path d="M27.6551 73.5511C25.7217 73.5511 23.9604 73.1453 22.4242 72.3537C19.8463 71.0236 18.063 68.7292 17.1272 65.5426C16.0368 61.8337 16.1649 56.9033 17.5024 51.2656C6.73163 47.8942 0.564941 42.7186 0.564941 37.0287C0.564941 31.3388 6.72722 26.1632 17.5024 22.7918C16.1649 17.1542 16.0324 12.2237 17.1227 8.51479C18.063 5.32426 19.8419 3.03382 22.4198 1.70376C23.956 0.91215 25.7217 0.506302 27.6551 0.506302C32.6123 0.506302 38.832 3.3151 45.2061 8.42639C51.5759 3.31912 57.7955 0.514338 62.7483 0.514338C64.6817 0.514338 66.443 0.916169 67.9792 1.71179C70.5527 3.04186 72.336 5.32827 73.2763 8.51077C74.3666 12.2237 74.2342 17.1501 72.8966 22.7918C83.6718 26.1632 89.8385 31.3388 89.8385 37.0287C89.8385 42.7186 83.6718 47.8942 72.8966 51.2696C74.2342 56.9073 74.3666 61.8337 73.2719 65.5426C72.336 68.7292 70.5571 71.0156 67.9836 72.3456C66.443 73.1413 64.6817 73.5431 62.7483 73.5431C57.7911 73.5431 51.5759 70.7383 45.2017 65.6351C38.8276 70.7423 32.6123 73.5511 27.6551 73.5511ZM21.8504 52.4671C20.7336 57.3172 20.6056 61.4641 21.4928 64.4778C22.1064 66.5633 23.1703 68.0099 24.6534 68.7734C25.501 69.2114 26.5162 69.4364 27.6551 69.4364C31.4911 69.4364 36.541 67.0897 41.9175 62.8142C39.2248 60.343 36.5939 57.5462 34.0911 54.4923C29.7607 54.0623 25.6466 53.3832 21.8504 52.4671ZM48.4859 62.8142C53.8624 67.0817 58.9123 69.4284 62.7483 69.4284C63.8916 69.4284 64.9025 69.2074 65.7544 68.7653C67.2332 68.0019 68.2926 66.5633 68.9062 64.4818C69.7934 61.4641 69.6698 57.3172 68.5486 52.4671C64.748 53.3832 60.6339 54.0664 56.3079 54.4923C53.8051 57.5462 51.1786 60.343 48.4859 62.8142ZM40.1916 54.9223C41.8336 56.7466 43.5111 58.4503 45.2017 60.0014C46.888 58.4543 48.5698 56.7506 50.2075 54.9223C48.5212 54.9946 46.8438 55.0308 45.2017 55.0308C43.5596 55.0308 41.8778 54.9946 40.1916 54.9223ZM36.5542 50.5865C39.3749 50.8035 42.2839 50.916 45.2017 50.916C48.1239 50.916 51.0285 50.8035 53.8404 50.5865C55.5222 48.4447 57.1246 46.1945 58.6033 43.904C60.038 41.69 61.3843 39.3754 62.6115 37.0287C61.3887 34.686 60.0424 32.3755 58.6033 30.1534C57.129 27.867 55.5266 25.6207 53.8404 23.4709C51.0285 23.254 48.1239 23.1414 45.2017 23.1414C42.2751 23.1414 39.3705 23.254 36.5586 23.4709C34.8768 25.6167 33.2744 27.863 31.7913 30.1534C30.3566 32.3755 29.0103 34.686 27.7875 37.0327C29.0103 39.3714 30.3566 41.6819 31.7913 43.9081C33.2656 46.1865 34.868 48.4327 36.5542 50.5865ZM64.9687 41.9431C64.1697 43.3294 63.3442 44.6876 62.4967 45.9936C61.6492 47.3116 60.7442 48.6336 59.804 49.9396C62.4835 49.5618 65.0525 49.0796 67.4539 48.497C66.7873 46.3914 65.953 44.1934 64.9687 41.9431ZM22.9451 48.497C25.3465 49.0756 27.9111 49.5618 30.5906 49.9355C29.6459 48.6256 28.741 47.2995 27.8979 45.9936C27.0548 44.6876 26.2249 43.3335 25.4303 41.9471C24.4504 44.1853 23.6161 46.3793 22.9451 48.497ZM67.5951 37.0287C69.3211 40.5166 70.7292 43.9643 71.7842 47.2915C80.1492 44.6113 85.3183 40.7055 85.3183 37.0287C85.3183 33.352 80.1492 29.4462 71.7842 26.766C70.7292 30.0931 69.3211 33.5408 67.5951 37.0287ZM18.6148 26.766C10.2542 29.4462 5.08512 33.352 5.08512 37.0287C5.08512 40.7055 10.2542 44.6113 18.6148 47.2915C19.6698 43.9643 21.0779 40.5166 22.8039 37.0327C21.0779 33.5448 19.6698 30.0971 18.6148 26.766ZM22.9451 25.5605C23.6161 27.6741 24.4504 29.8721 25.4303 32.1103C26.2249 30.732 27.0504 29.3738 27.8979 28.0679C28.7454 26.7499 29.6504 25.4279 30.595 24.1219C27.9111 24.4956 25.3465 24.9778 22.9451 25.5605ZM59.804 24.1179C60.7487 25.4319 61.6536 26.7579 62.5011 28.0679C63.3442 29.3698 64.1697 30.728 64.9687 32.1103C65.953 29.8721 66.7873 27.6741 67.4583 25.5605C65.0481 24.9778 62.4835 24.4956 59.804 24.1179ZM27.6551 4.62105C26.5118 4.62105 25.501 4.84608 24.649 5.28407C23.1703 6.05157 22.1064 7.49414 21.4928 9.57965C20.6056 12.5974 20.7292 16.7443 21.8504 21.5944C25.6466 20.6742 29.7651 19.9951 34.0955 19.5651C36.5984 16.5112 39.2292 13.7145 41.9219 11.2472C36.541 6.96774 31.4911 4.62105 27.6551 4.62105ZM56.3079 19.5651C60.6339 19.9911 64.7524 20.6742 68.5486 21.5904C69.6698 16.7403 69.7978 12.5934 68.9062 9.57563C68.2926 7.49414 67.2332 6.05559 65.7544 5.29211C64.9025 4.85009 63.8916 4.62909 62.7483 4.62909C58.9123 4.62909 53.8624 6.97578 48.4859 11.2472C51.1742 13.7145 53.8051 16.5112 56.3079 19.5651ZM45.2017 19.0267C46.8438 19.0267 48.5212 19.0629 50.2075 19.1352C48.5698 17.3109 46.8924 15.6071 45.2061 14.056C43.5111 15.6111 41.8336 17.3149 40.196 19.1352C41.8822 19.0629 43.5596 19.0267 45.2017 19.0267Z" fill="#FDFDFD"/>
<path d="M27.6552 1.02065C32.7316 1.02065 38.9512 4.01429 45.2062 9.11353C51.4612 4.01831 57.672 1.02869 62.7484 1.02869C64.5803 1.02869 66.2489 1.41043 67.7056 2.15783C70.1422 3.41556 71.8329 5.59751 72.729 8.6474C73.9473 12.6737 73.6913 17.6364 72.239 23.1294C82.661 26.2998 89.2735 31.2986 89.2735 37.0287C89.2735 42.7588 82.661 47.7576 72.239 50.9281C73.7531 56.8671 74.0047 61.9623 72.729 65.41C71.8285 68.4599 70.1422 70.6419 67.7056 71.8996C66.2489 72.651 64.9246 73.0328 63.0927 73.0328C63.0927 73.0328 62.6248 73.0328 62.6204 73.0328C57.5484 73.0328 51.4568 70.0391 45.2018 64.9479C38.9468 70.0432 32.7316 73.0368 27.6552 73.0368C25.8233 73.0368 24.1547 72.6551 22.698 71.9036C20.2614 70.6459 18.5707 68.4599 17.6746 65.41C16.3283 61.5846 16.5975 56.5617 18.1646 50.9281C7.74257 47.7576 1.13004 42.7588 1.13004 37.0287C1.13004 31.3026 7.74257 26.2998 18.1602 23.1294C17.3877 19.9831 16.8889 17.0617 16.8712 14.3976C16.858 12.292 17.1758 10.3351 17.6702 8.6474C18.5707 5.59751 20.2614 3.41155 22.698 2.15381C24.1503 1.40239 25.8189 1.02065 27.6552 1.02065ZM21.4223 22.2293C25.351 21.2488 29.7166 20.5054 34.4002 20.0514C37.0928 16.7483 39.9091 13.7828 42.7475 11.2231C37.2385 6.75076 31.8796 4.10671 27.6552 4.10671C26.4104 4.10671 25.3068 4.35183 24.371 4.83403C22.751 5.67385 21.5989 7.2209 20.9456 9.44705C19.9788 12.738 20.1951 17.1903 21.4223 22.2293ZM68.9769 22.2293C70.204 17.1903 70.4247 12.738 69.4536 9.44303C68.8003 7.22492 67.6482 5.67787 66.0326 4.84206C65.0968 4.35987 63.9888 4.11475 62.7484 4.11475C58.524 4.11475 53.1695 6.75478 47.6649 11.2231C50.4989 13.7828 53.3152 16.7483 56.0034 20.0514C60.6825 20.5054 65.0482 21.2448 68.9769 22.2293ZM38.9601 19.7098C40.995 19.6013 43.0388 19.5049 45.1621 19.5049C47.2853 19.5049 49.4041 19.6013 51.4435 19.7098C49.3997 17.3671 47.303 15.2254 45.2018 13.3287C43.105 15.2254 41.0039 17.3671 38.9601 19.7098ZM45.2018 51.4304C48.3227 51.4304 51.3067 51.3058 54.1495 51.0767C55.8666 48.8988 57.5263 46.5883 59.089 44.1652C60.6207 41.8025 62.0024 39.4076 63.2384 37.0287C62.0024 34.6499 60.6207 32.255 59.089 29.8922C57.5263 27.4692 55.8666 25.1586 54.1495 22.9807C51.3111 22.7517 48.3227 22.6271 45.2018 22.6271C42.0809 22.6271 39.0925 22.7517 36.2497 22.9807C34.5326 25.1586 32.8728 27.4692 31.3058 29.8922C29.7784 32.255 28.3968 34.6499 27.1608 37.0287C28.3968 39.4076 29.7784 41.8025 31.3058 44.1652C32.8728 46.5883 34.5326 48.8988 36.2497 51.0767C39.0925 51.3058 42.0809 51.4304 45.2018 51.4304ZM65.0305 33.3399C66.3018 30.5512 67.3524 27.8147 68.1558 25.1988C65.2689 24.4755 62.0818 23.8808 58.6299 23.4428C59.7908 25.014 60.9253 26.6414 62.0112 28.3251C63.0883 29.9927 64.0947 31.6683 65.0305 33.3399ZM25.3686 33.3399C26.3044 31.6683 27.3065 29.9927 28.3835 28.3251C29.4739 26.6414 30.6039 25.014 31.7693 23.4428C28.3173 23.8808 25.1303 24.4795 22.2433 25.1988C23.0467 27.8188 24.0973 30.5512 25.3686 33.3399ZM71.4047 47.9545C80.5333 45.1417 85.8834 41.0069 85.8834 37.0287C85.8834 33.0506 80.5333 28.9158 71.4047 26.1029C70.3276 29.6029 68.84 33.2837 66.9772 37.0287C68.84 40.7698 70.3276 44.4505 71.4047 47.9545ZM18.9945 47.9545C20.0715 44.4546 21.5591 40.7738 23.4219 37.0327C21.5591 33.2877 20.0715 29.6069 18.9945 26.1029C9.87024 28.9198 4.52018 33.0546 4.52018 37.0287C4.52018 41.0069 9.87024 45.1417 18.9945 47.9545ZM58.6299 50.6146C62.0818 50.1766 65.2689 49.5819 68.1558 48.8586C67.3524 46.2427 66.3018 43.5062 65.0305 40.7175C64.0947 42.3892 63.0883 44.0648 62.0112 45.7324C60.9253 47.4161 59.7908 49.0435 58.6299 50.6146ZM31.7649 50.6146C30.6039 49.0435 29.4694 47.4161 28.3835 45.7324C27.3065 44.0648 26.3044 42.3932 25.3686 40.7216C24.0973 43.5062 23.0467 46.2427 22.2433 48.8586C25.1303 49.5779 28.3129 50.1766 31.7649 50.6146ZM27.6552 69.9507C31.884 69.9507 37.2385 67.3067 42.7431 62.8383C39.9047 60.2787 37.0884 57.3091 34.3957 54.0061C29.7166 53.552 25.3554 52.8086 21.4267 51.8282C20.1996 56.8671 19.9788 61.3194 20.95 64.6104C21.6033 66.8325 22.7554 68.3836 24.371 69.2194C25.3068 69.7056 26.4148 69.9507 27.6552 69.9507ZM62.7484 69.9427C63.9888 69.9427 65.0923 69.6976 66.0326 69.2154C67.6482 68.3796 68.8003 66.8325 69.4492 64.6144C70.4203 61.3194 70.1996 56.8671 68.9725 51.8282C65.0438 52.8126 60.6825 53.552 55.999 54.0061C53.3107 57.3091 50.4945 60.2747 47.6605 62.8383C53.1651 67.3027 58.524 69.9427 62.7484 69.9427ZM45.2018 60.7287C47.2986 58.8321 49.3997 56.6903 51.4435 54.3476C49.4086 54.4561 47.4222 54.6892 45.2945 54.6892C43.1712 54.6892 40.995 54.4561 38.9556 54.3476C41.0039 56.6903 43.1006 58.8321 45.2018 60.7287ZM27.2535 0.0683113C25.2185 0.0683113 23.7663 0.417904 22.1418 1.25773C19.4315 2.6561 17.5598 5.05101 16.5799 8.38219C15.494 12.071 15.5911 16.9211 16.8447 22.4543C6.12255 25.906 0 31.1901 0 37.0287C0 42.8673 6.12696 48.1514 16.8491 51.6031C15.5911 57.1363 15.4984 61.9865 16.5843 65.6753C17.5598 69.0024 19.4315 71.3973 22.1418 72.7997C23.7707 73.6395 25.7262 73.9972 27.7567 73.9972C32.8287 73.9972 38.7791 71.3893 45.2018 66.3182C51.6245 71.3853 57.6764 74.0574 62.7484 74.0574C64.7789 74.0574 66.6373 73.6355 68.2618 72.7957C70.9721 71.3973 72.8393 69.0024 73.8193 65.6793C74.9052 61.9865 74.8081 57.1363 73.5544 51.6072C84.2766 48.1514 90.4036 42.8673 90.4036 37.0287C90.4036 31.1901 84.2766 25.906 73.5544 22.4543C74.8125 16.9171 74.9052 12.067 73.8193 8.37818C72.8393 5.05504 70.9721 2.66012 68.2618 1.26175C66.6329 0.425942 64.7789 0 62.7484 0C57.6764 0 51.6289 2.67218 45.2062 7.74328C38.7791 2.66816 32.7007 0.0683113 27.6287 0.0683113H27.2535ZM22.2831 20.9595C21.7622 18.5686 21.4135 16.3264 21.3914 14.3614C21.3737 12.5934 21.643 11.0504 22.0359 9.71226C22.6097 7.76338 23.5809 6.42528 24.9272 5.73011C25.6909 5.33632 26.6223 5.06709 27.6684 5.06709C31.2616 5.06709 35.9937 7.30931 41.0965 11.2754C38.5849 13.614 36.1305 16.23 33.7866 19.0789C29.7387 19.4888 25.8763 20.1197 22.2831 20.9595ZM49.3114 11.2754C54.4143 7.31332 59.1552 5.14344 62.7484 5.14344C63.7901 5.14344 64.7083 5.34435 65.4764 5.73815C66.8183 6.43331 67.7894 7.76739 68.3633 9.70824C69.3477 12.6095 69.2241 16.463 68.1161 20.9555C64.5273 20.1197 60.6649 19.4888 56.6126 19.0789C54.2731 16.234 51.8187 13.614 49.3114 11.2754ZM41.4409 18.5726C42.6813 17.2386 43.9393 15.9728 45.2018 14.7914C46.4687 15.9728 47.7223 17.2386 48.9627 18.5726C47.6958 18.5324 46.4378 18.5124 45.2018 18.5124C43.9658 18.5124 42.7077 18.5324 41.4409 18.5726ZM36.8677 23.9652C39.5869 23.7603 42.3855 23.6156 45.2018 23.6156C48.0181 23.6156 50.8167 23.7603 53.5315 23.9652C55.1515 26.0427 56.6921 28.2085 58.1179 30.4146C59.4995 32.5523 60.7973 34.7745 61.9847 37.0287C60.7973 39.283 59.4951 41.5051 58.1179 43.6429C56.6921 45.8489 55.1515 48.0148 53.5315 50.0923C50.8167 50.2972 48.0181 50.5704 45.2018 50.5704C42.3855 50.5704 39.5825 50.2972 36.8633 50.0923C35.2433 48.0148 33.7027 45.8489 32.2769 43.6429C30.8997 41.5051 29.5975 39.283 28.41 37.0287C29.5975 34.7745 30.8997 32.5483 32.2813 30.4106C33.7071 28.2085 35.2477 26.0386 36.8677 23.9652ZM64.8893 30.8807C64.2669 29.836 63.6312 28.8073 62.9868 27.8067C62.3423 26.8102 61.6669 25.8096 60.9694 24.8131C62.9735 25.1225 64.907 25.4962 66.7477 25.9221C66.2224 27.5335 65.6 29.193 64.8893 30.8807ZM23.6515 25.9221C25.4922 25.4962 27.4257 25.1225 29.4297 24.8131C28.7279 25.8096 28.0525 26.8102 27.4124 27.8027C26.7635 28.8032 26.1279 29.8319 25.5099 30.8807C24.7992 29.193 24.1768 27.5375 23.6515 25.9221ZM68.2132 37.0287C69.8156 33.7739 71.1399 30.5552 72.1595 27.433C79.9595 30.0248 84.7534 33.6574 84.7534 37.0287C84.7534 40.4001 79.9595 44.0326 72.1595 46.6245C71.1354 43.5022 69.8156 40.2795 68.2132 37.0287ZM18.2396 46.6204C10.4441 44.0326 5.65022 40.4001 5.65022 37.0287C5.65022 33.6574 10.4441 30.0248 18.2396 27.437C19.2593 30.5592 20.5836 33.7779 22.1815 37.0287C20.5836 40.2795 19.2637 43.5022 18.2396 46.6204ZM60.9694 49.2444C61.6669 48.2478 62.3423 47.2473 62.9868 46.2548C63.6312 45.2542 64.2669 44.2215 64.8893 43.1767C65.6 44.8644 66.2224 46.524 66.7477 48.1353C64.907 48.5613 62.9735 48.935 60.9694 49.2444ZM23.6515 48.1353C24.1768 46.524 24.7992 44.8644 25.5099 43.1808C26.1279 44.2255 26.7635 45.2542 27.408 46.2548C28.0525 47.2473 28.7279 48.2478 29.4253 49.2444C27.4212 48.931 25.4922 48.5613 23.6515 48.1353ZM27.6552 68.9221C26.6134 68.9221 25.6953 68.7211 24.9316 68.3273C23.5853 67.6282 22.6141 66.2901 22.0403 64.3452C21.1001 61.4199 21.206 57.5663 22.2875 53.0979C25.8763 53.9378 29.7343 54.5686 33.7866 54.9785C36.1305 57.8235 38.5849 60.4434 41.0921 62.7821C35.9937 66.7522 31.2484 68.9221 27.6552 68.9221ZM56.6126 54.9785C60.6649 54.5686 64.5229 53.9378 68.1161 53.102C69.3653 57.9762 69.4624 61.8619 68.3589 64.3452C67.7894 66.2901 66.8183 67.6241 65.4764 68.3193C64.7083 68.7131 63.7901 68.914 62.7484 68.914V69.9427V68.914C59.1552 68.914 54.4099 66.7441 49.3114 62.7821C51.8187 60.4434 54.2686 57.8235 56.6126 54.9785ZM45.2018 59.2701C43.9349 58.0887 42.6768 56.8229 41.4409 55.4848C42.7033 55.525 43.9614 55.5451 45.2018 55.5451C46.4378 55.5451 47.6958 55.525 48.9627 55.4848C47.7223 56.8229 46.4643 58.0887 45.2018 59.2701Z" fill="#FDFDFD"/>
</svg>
