<svg width="91" height="79" viewBox="0 0 91 79" fill="none" xmlns="http://www.w3.org/2000/svg">
<g clip-path="url(#clip0_380_38)">
<path d="M52.5918 39.5C52.5918 43.0488 49.3223 45.9188 45.2793 45.9188C41.2363 45.9188 37.9668 43.0488 37.9668 39.5C37.9668 35.9512 41.2363 33.0813 45.2793 33.0813C49.3223 33.0813 52.5918 35.9512 52.5918 39.5Z" fill="#011638"/>
<path d="M45.2793 46.4125C40.9375 46.4125 37.4043 43.3111 37.4043 39.5C37.4043 35.6889 40.9375 32.5875 45.2793 32.5875C49.6211 32.5875 53.1543 35.6889 53.1543 39.5C53.1543 43.3111 49.6211 46.4125 45.2793 46.4125ZM45.2793 33.575C41.5571 33.575 38.5293 36.2328 38.5293 39.5C38.5293 42.7672 41.5571 45.425 45.2793 45.425C49.0015 45.425 52.0293 42.7672 52.0293 39.5C52.0293 36.2328 49.0015 33.575 45.2793 33.575Z" fill="#011638"/>
<path d="M27.811 74.5601C25.8862 74.5601 24.1328 74.1705 22.6035 73.4106C20.0371 72.1338 18.2617 69.9312 17.3301 66.8723C16.2446 63.3119 16.3721 58.5788 17.7036 53.1668C6.98096 49.9305 0.841797 44.9621 0.841797 39.5C0.841797 34.0379 6.97656 29.0695 17.7036 25.8332C16.3721 20.4212 16.2402 15.6881 17.3257 12.1277C18.2617 9.06494 20.0327 6.86621 22.5991 5.58941C24.1284 4.82949 25.8862 4.4399 27.811 4.4399C32.7461 4.4399 38.938 7.13623 45.2837 12.0429C51.625 7.14009 57.8169 4.44761 62.7476 4.44761C64.6724 4.44761 66.4258 4.83335 67.9551 5.59712C70.5171 6.87393 72.2925 9.0688 73.2285 12.1239C74.314 15.6881 74.1821 20.4173 72.8506 25.8332C83.5776 29.0695 89.7168 34.0379 89.7168 39.5C89.7168 44.9621 83.5776 49.9305 72.8506 53.1707C74.1821 58.5827 74.314 63.3119 73.2241 66.8723C72.2925 69.9312 70.5215 72.1261 67.9595 73.4029C66.4258 74.1667 64.6724 74.5524 62.7476 74.5524C57.8125 74.5524 51.625 71.8599 45.2793 66.961C38.9336 71.8638 32.7461 74.5601 27.811 74.5601ZM22.0322 54.3202C20.9204 58.9761 20.793 62.957 21.6763 65.8501C22.2871 67.8521 23.3462 69.2407 24.8228 69.9736C25.6665 70.3941 26.6772 70.6101 27.811 70.6101C31.6299 70.6101 36.6572 68.3574 42.0098 64.2531C39.3291 61.8808 36.71 59.196 34.2183 56.2644C29.9072 55.8516 25.8115 55.1997 22.0322 54.3202ZM48.5488 64.2531C53.9014 68.3497 58.9287 70.6024 62.7476 70.6024C63.8857 70.6024 64.8921 70.3902 65.7402 69.9659C67.2124 69.233 68.2671 67.8521 68.8779 65.8539C69.7612 62.957 69.6382 58.9761 68.522 54.3202C64.7383 55.1997 60.6426 55.8555 56.3359 56.2644C53.8442 59.196 51.2295 61.8808 48.5488 64.2531ZM40.2915 56.6771C41.9263 58.4284 43.5962 60.0639 45.2793 61.5529C46.958 60.0678 48.6323 58.4322 50.2627 56.6771C48.584 56.7465 46.9141 56.7813 45.2793 56.7813C43.6445 56.7813 41.9702 56.7465 40.2915 56.6771ZM36.6704 52.5149C39.4785 52.7232 42.3745 52.8313 45.2793 52.8313C48.1885 52.8313 51.0801 52.7232 53.8794 52.5149C55.5537 50.4589 57.1489 48.2988 58.6211 46.1001C60.0493 43.9746 61.3896 41.7527 62.6113 39.5C61.394 37.2511 60.0537 35.0331 58.6211 32.9C57.1533 30.7051 55.5581 28.5488 53.8794 26.4851C51.0801 26.2768 48.1885 26.1688 45.2793 26.1688C42.3657 26.1688 39.4741 26.2768 36.6748 26.4851C35.0005 28.5449 33.4053 30.7012 31.9287 32.9C30.5005 35.0331 29.1602 37.2511 27.9429 39.5039C29.1602 41.7489 30.5005 43.9669 31.9287 46.1039C33.3965 48.2911 34.9917 50.4474 36.6704 52.5149ZM64.958 44.2176C64.1626 45.5484 63.3408 46.8522 62.4971 48.1059C61.6533 49.3711 60.7524 50.6402 59.8164 51.8939C62.4839 51.5313 65.0415 51.0684 67.4321 50.5091C66.7686 48.4878 65.938 46.3778 64.958 44.2176ZM23.1221 50.5091C25.5127 51.0646 28.0659 51.5313 30.7334 51.89C29.793 50.6325 28.8921 49.3596 28.0527 48.1059C27.2134 46.8522 26.3872 45.5523 25.5962 44.2215C24.6206 46.3701 23.79 48.4762 23.1221 50.5091ZM67.5728 39.5C69.291 42.8482 70.6929 46.1579 71.7432 49.3519C80.0708 46.779 85.2168 43.0295 85.2168 39.5C85.2168 35.9705 80.0708 32.221 71.7432 29.6481C70.6929 32.8421 69.291 36.1518 67.5728 39.5ZM18.811 29.6481C10.4878 32.221 5.3418 35.9705 5.3418 39.5C5.3418 43.0295 10.4878 46.779 18.811 49.3519C19.8613 46.1579 21.2632 42.8482 22.9814 39.5039C21.2632 36.1556 19.8613 32.846 18.811 29.6481ZM23.1221 28.4909C23.79 30.5199 24.6206 32.6299 25.5962 34.7785C26.3872 33.4554 27.209 32.1516 28.0527 30.898C28.8965 29.6327 29.7974 28.3636 30.7378 27.11C28.0659 27.4687 25.5127 27.9316 23.1221 28.4909ZM59.8164 27.1061C60.7568 28.3675 61.6577 29.6404 62.5015 30.898C63.3408 32.1478 64.1626 33.4516 64.958 34.7785C65.938 32.6299 66.7686 30.5199 67.4365 28.4909C65.0371 27.9316 62.4839 27.4687 59.8164 27.1061ZM27.811 8.3899C26.6729 8.3899 25.6665 8.60591 24.8184 9.02637C23.3462 9.76314 22.2871 11.148 21.6763 13.15C20.793 16.0469 20.916 20.0277 22.0322 24.6836C25.8115 23.8003 29.9116 23.1484 34.2227 22.7356C36.7144 19.804 39.3335 17.1192 42.0142 14.7508C36.6572 10.6426 31.6299 8.3899 27.811 8.3899ZM56.3359 22.7356C60.6426 23.1445 64.7427 23.8003 68.522 24.6798C69.6382 20.0239 69.7656 16.043 68.8779 13.1461C68.2671 11.148 67.2124 9.767 65.7402 9.03409C64.8921 8.60977 63.8857 8.39761 62.7476 8.39761C58.9287 8.39761 53.9014 10.6503 48.5488 14.7508C51.2251 17.1192 53.8442 19.804 56.3359 22.7356ZM45.2793 22.2188C46.9141 22.2188 48.584 22.2535 50.2627 22.3229C48.6323 20.5716 46.9624 18.9361 45.2837 17.4471C43.5962 18.9399 41.9263 20.5755 40.2959 22.3229C41.9746 22.2535 43.6445 22.2188 45.2793 22.2188Z" fill="#011638"/>
<path d="M27.811 4.93364C32.8647 4.93364 39.0566 7.80742 45.2837 12.7025C51.5107 7.81128 57.6938 4.94136 62.7476 4.94136C64.5713 4.94136 66.2324 5.30781 67.6826 6.02529C70.1084 7.23267 71.7915 9.32725 72.6836 12.255C73.8965 16.1202 73.6416 20.8841 72.1958 26.1572C82.5713 29.2007 89.1543 33.9993 89.1543 39.5C89.1543 45.0007 82.5713 49.7993 72.1958 52.8428C73.7031 58.5441 73.9536 63.4353 72.6836 66.745C71.7871 69.6728 70.1084 71.7673 67.6826 72.9747C66.2324 73.696 64.9141 74.0625 63.0903 74.0625C63.0903 74.0625 62.6245 74.0625 62.6201 74.0625C57.5708 74.0625 51.5063 71.1887 45.2793 66.3014C39.0522 71.1926 32.8647 74.0664 27.811 74.0664C25.9873 74.0664 24.3262 73.6999 22.876 72.9786C20.4502 71.7712 18.7671 69.6728 17.875 66.745C16.5347 63.0727 16.8027 58.2509 18.3628 52.8428C7.9873 49.7993 1.4043 45.0007 1.4043 39.5C1.4043 34.0032 7.9873 29.2007 18.3584 26.1572C17.5894 23.1368 17.0928 20.3325 17.0752 17.775C17.062 15.7537 17.3784 13.8751 17.8706 12.255C18.7671 9.32725 20.4502 7.22881 22.876 6.02144C24.3218 5.3001 25.9829 4.93364 27.811 4.93364ZM21.606 25.2931C25.5171 24.3519 29.8633 23.6383 34.5259 23.2024C37.2065 20.0316 40.0103 17.1848 42.8359 14.7276C37.3516 10.4343 32.0166 7.89614 27.811 7.89614C26.5718 7.89614 25.4731 8.13145 24.5415 8.59434C22.9287 9.40054 21.7817 10.8856 21.1313 13.0227C20.1689 16.1819 20.3843 20.4559 21.606 25.2931ZM68.9482 25.2931C70.1699 20.4559 70.3896 16.1819 69.4229 13.0188C68.7725 10.8895 67.6255 9.4044 66.0171 8.60205C65.0854 8.13916 63.9824 7.90386 62.7476 7.90386C58.542 7.90386 53.2114 10.4382 47.7314 14.7276C50.5527 17.1848 53.3564 20.0316 56.0327 23.2024C60.6909 23.6383 65.0371 24.348 68.9482 25.2931ZM39.0654 22.8745C41.0913 22.7704 43.126 22.6778 45.2397 22.6778C47.3535 22.6778 49.4629 22.7704 51.4932 22.8745C49.4585 20.6256 47.3711 18.5696 45.2793 16.7489C43.1919 18.5696 41.1001 20.6256 39.0654 22.8745ZM45.2793 53.325C48.3862 53.325 51.3569 53.2054 54.187 52.9855C55.8965 50.8948 57.5488 48.6768 59.1045 46.3508C60.6294 44.0826 62.0049 41.7836 63.2354 39.5C62.0049 37.2164 60.6294 34.9174 59.1045 32.6492C57.5488 30.3232 55.8965 28.1052 54.187 26.0145C51.3613 25.7946 48.3862 25.675 45.2793 25.675C42.1724 25.675 39.1973 25.7946 36.3672 26.0145C34.6577 28.1052 33.0054 30.3232 31.4453 32.6492C29.9248 34.9174 28.5493 37.2164 27.3188 39.5C28.5493 41.7836 29.9248 44.0826 31.4453 46.3508C33.0054 48.6768 34.6577 50.8948 36.3672 52.9855C39.1973 53.2054 42.1724 53.325 45.2793 53.325ZM65.0195 35.9589C66.2852 33.2818 67.3311 30.6549 68.1309 28.1438C65.2568 27.4494 62.084 26.8785 58.6475 26.4581C59.8032 27.9663 60.9326 29.5286 62.0137 31.1448C63.0859 32.7457 64.0879 34.3542 65.0195 35.9589ZM25.5347 35.9589C26.4663 34.3542 27.4639 32.7457 28.5361 31.1448C29.6216 29.5286 30.7466 27.9663 31.9067 26.4581C28.4702 26.8785 25.2974 27.4533 22.4233 28.1438C23.2231 30.6588 24.269 33.2818 25.5347 35.9589ZM71.3652 49.9883C80.4531 47.2881 85.7793 43.3188 85.7793 39.5C85.7793 35.6812 80.4531 31.7119 71.3652 29.0117C70.293 32.3715 68.812 35.9049 66.9575 39.5C68.812 43.0913 70.293 46.6247 71.3652 49.9883ZM19.189 49.9883C20.2612 46.6285 21.7422 43.0951 23.5967 39.5039C21.7422 35.9087 20.2612 32.3753 19.189 29.0117C10.1055 31.7157 4.7793 35.685 4.7793 39.5C4.7793 43.3188 10.1055 47.2881 19.189 49.9883ZM58.6475 52.5419C62.084 52.1215 65.2568 51.5506 68.1309 50.8563C67.3311 48.3451 66.2852 45.7182 65.0195 43.0411C64.0879 44.6458 63.0859 46.2543 62.0137 47.8552C60.9326 49.4714 59.8032 51.0337 58.6475 52.5419ZM31.9023 52.5419C30.7466 51.0337 29.6172 49.4714 28.5361 47.8552C27.4639 46.2543 26.4663 44.6497 25.5347 43.045C24.269 45.7182 23.2231 48.3451 22.4233 50.8563C25.2974 51.5467 28.4658 52.1215 31.9023 52.5419ZM27.811 71.1039C32.021 71.1039 37.3516 68.5657 42.8315 64.2762C40.0059 61.819 37.2021 58.9684 34.5215 55.7976C29.8633 55.3617 25.5215 54.6481 21.6104 53.7069C20.3887 58.5441 20.1689 62.8181 21.1357 65.9773C21.7861 68.1105 22.9331 69.5995 24.5415 70.4018C25.4731 70.8686 26.5762 71.1039 27.811 71.1039ZM62.7476 71.0961C63.9824 71.0961 65.0811 70.8608 66.0171 70.398C67.6255 69.5956 68.7725 68.1105 69.4185 65.9812C70.3853 62.8181 70.1655 58.5441 68.9438 53.7069C65.0327 54.652 60.6909 55.3617 56.0283 55.7976C53.352 58.9684 50.5483 61.8152 47.7271 64.2762C53.207 68.5618 58.542 71.0961 62.7476 71.0961ZM45.2793 62.2511C47.3667 60.4304 49.4585 58.3744 51.4932 56.1255C49.4673 56.2296 47.4897 56.4534 45.3716 56.4534C43.2578 56.4534 41.0913 56.2296 39.061 56.1255C41.1001 58.3744 43.1875 60.4304 45.2793 62.2511ZM27.4111 4.01943C25.3853 4.01943 23.9395 4.35503 22.3223 5.16123C19.624 6.50361 17.7607 8.80264 16.7852 12.0004C15.7041 15.5416 15.8008 20.1975 17.0488 25.5091C6.37451 28.8227 0.279297 33.8952 0.279297 39.5C0.279297 45.1048 6.37891 50.1773 17.0532 53.4909C15.8008 58.8025 15.7085 63.4584 16.7896 66.9996C17.7607 70.1935 19.624 72.4925 22.3223 73.8388C23.9438 74.645 25.8906 74.9883 27.9121 74.9883C32.9614 74.9883 38.8853 72.4848 45.2793 67.6167C51.6733 72.481 57.6982 75.0461 62.7476 75.0461C64.769 75.0461 66.6191 74.6411 68.2363 73.8349C70.9346 72.4925 72.7935 70.1935 73.769 67.0034C74.8501 63.4584 74.7534 58.8025 73.5054 53.4947C84.1797 50.1773 90.2793 45.1048 90.2793 39.5C90.2793 33.8952 84.1797 28.8227 73.5054 25.5091C74.7578 20.1936 74.8501 15.5377 73.769 11.9966C72.7935 8.8065 70.9346 6.50747 68.2363 5.16509C66.6147 4.36275 64.769 3.95386 62.7476 3.95386C57.6982 3.95386 51.6777 6.51904 45.2837 11.3871C38.8853 6.51519 32.834 4.01943 27.7847 4.01943H27.4111ZM22.4629 24.0742C21.9443 21.779 21.5972 19.6266 21.5752 17.7403C21.5576 16.043 21.8257 14.5618 22.2168 13.2772C22.7881 11.4064 23.7549 10.1219 25.0952 9.45454C25.8555 9.07651 26.7827 8.81807 27.8242 8.81807C31.4014 8.81807 36.1123 10.9705 41.1924 14.7778C38.6919 17.0228 36.2485 19.534 33.915 22.2689C29.8853 22.6624 26.04 23.268 22.4629 24.0742ZM49.3706 14.7778C54.4507 10.9744 59.1704 8.89136 62.7476 8.89136C63.7847 8.89136 64.6987 9.08423 65.4634 9.46226C66.7993 10.1296 67.7661 11.4103 68.3374 13.2734C69.3174 16.0584 69.1943 19.7577 68.0913 24.0703C64.5186 23.268 60.6733 22.6624 56.6392 22.2689C54.3101 19.5378 51.8667 17.0228 49.3706 14.7778ZM41.5352 21.7829C42.77 20.5022 44.0225 19.2871 45.2793 18.153C46.5405 19.2871 47.7886 20.5022 49.0234 21.7829C47.7622 21.7443 46.5098 21.725 45.2793 21.725C44.0488 21.725 42.7964 21.7443 41.5352 21.7829ZM36.9824 26.9595C39.6895 26.7628 42.4756 26.6239 45.2793 26.6239C48.083 26.6239 50.8691 26.7628 53.5718 26.9595C55.1846 28.9538 56.7183 31.033 58.1377 33.1507C59.5132 35.2028 60.8052 37.336 61.9873 39.5C60.8052 41.664 59.5088 43.7972 58.1377 45.8493C56.7183 47.967 55.1846 50.0462 53.5718 52.0405C50.8691 52.2372 48.083 52.4995 45.2793 52.4995C42.4756 52.4995 39.6851 52.2372 36.978 52.0405C35.3652 50.0462 33.8315 47.967 32.4121 45.8493C31.041 43.7972 29.7446 41.664 28.5625 39.5C29.7446 37.336 31.041 35.199 32.4165 33.1468C33.8359 31.033 35.3696 28.95 36.9824 26.9595ZM64.8789 33.5981C64.2593 32.5952 63.6265 31.6077 62.9849 30.6472C62.3433 29.6906 61.6709 28.7301 60.9766 27.7734C62.9717 28.0705 64.8965 28.4292 66.729 28.8381C66.2061 30.3849 65.5864 31.978 64.8789 33.5981ZM23.8252 28.8381C25.6577 28.4292 27.5825 28.0705 29.5776 27.7734C28.8789 28.7301 28.2065 29.6906 27.5693 30.6434C26.9233 31.6039 26.2905 32.5914 25.6753 33.5981C24.9678 31.978 24.3481 30.3888 23.8252 28.8381ZM68.188 39.5C69.7832 36.3755 71.1016 33.2857 72.1167 30.2885C79.8818 32.7765 84.6543 36.2636 84.6543 39.5C84.6543 42.7364 79.8818 46.2235 72.1167 48.7115C71.0972 45.7143 69.7832 42.6207 68.188 39.5ZM18.4375 48.7077C10.6768 46.2235 5.9043 42.7364 5.9043 39.5C5.9043 36.2636 10.6768 32.7765 18.4375 30.2923C19.4526 33.2896 20.771 36.3793 22.3618 39.5C20.771 42.6207 19.457 45.7143 18.4375 48.7077ZM60.9766 51.2266C61.6709 50.2699 62.3433 49.3094 62.9849 48.3566C63.6265 47.3961 64.2593 46.4048 64.8789 45.4019C65.5864 47.022 66.2061 48.6151 66.729 50.1619C64.8965 50.5708 62.9717 50.9295 60.9766 51.2266ZM23.8252 50.1619C24.3481 48.6151 24.9678 47.022 25.6753 45.4057C26.2905 46.4086 26.9233 47.3961 27.5649 48.3566C28.2065 49.3094 28.8789 50.2699 29.5732 51.2266C27.5781 50.9257 25.6577 50.5708 23.8252 50.1619ZM27.811 70.1164C26.7739 70.1164 25.8599 69.9235 25.0996 69.5455C23.7593 68.8743 22.7925 67.5897 22.2212 65.7228C21.2852 62.9146 21.3906 59.2153 22.4673 54.9258C26.04 55.732 29.8809 56.3376 33.915 56.7311C36.2485 59.4622 38.6919 61.9772 41.188 64.2222C36.1123 68.0334 31.3882 70.1164 27.811 70.1164ZM56.6392 56.7311C60.6733 56.3376 64.5142 55.732 68.0913 54.9297C69.335 59.6087 69.4316 63.3389 68.333 65.7228C67.7661 67.5897 66.7993 68.8704 65.4634 69.5377C64.6987 69.9158 63.7847 70.1086 62.7476 70.1086V71.0961V70.1086C59.1704 70.1086 54.4463 68.0256 49.3706 64.2222C51.8667 61.9772 54.3057 59.4622 56.6392 56.7311ZM45.2793 60.8508C44.0181 59.7167 42.7656 58.5017 41.5352 57.2171C42.792 57.2557 44.0444 57.275 45.2793 57.275C46.5098 57.275 47.7622 57.2557 49.0234 57.2171C47.7886 58.5017 46.5361 59.7167 45.2793 60.8508Z" fill="#011638"/>
</g>
<defs>
<clipPath id="clip0_380_38">
<rect width="90" height="79" fill="white" transform="translate(0.279297)"/>
</clipPath>
</defs>
</svg>
