<svg width="95" height="73" viewBox="0 0 95 73" fill="none" xmlns="http://www.w3.org/2000/svg">
<path d="M81.4504 41.6231C78.1504 41.6407 75.2824 42.4519 72.8808 43.6511C71.9997 41.87 71.1185 40.2828 70.963 39.1189C70.7902 37.761 70.5829 36.9322 70.7902 35.3098C70.9976 33.6874 71.9305 31.3772 71.9133 31.2008C71.896 31.0245 71.7059 30.1956 69.8054 30.178C67.9049 30.1604 66.2635 30.5483 66.0735 31.0598C65.8834 31.5712 65.5206 32.7351 65.2787 33.9342C64.9505 35.6977 61.4777 41.9934 59.4908 45.2911C58.8515 44.0038 58.2986 42.8751 58.1777 41.9758C58.0049 40.6179 57.7976 39.789 58.0049 38.1666C58.2123 36.5442 59.1452 34.234 59.128 34.0577C59.1107 33.8813 58.9206 33.0525 57.0201 33.0349C55.1196 33.0172 53.4782 33.4052 53.2882 33.9166C53.0981 34.428 52.8908 35.6272 52.4934 36.7911C52.096 37.955 47.483 48.4654 46.2735 51.1812C45.6515 52.5744 45.1159 53.6854 44.7358 54.4437C44.7358 54.4437 44.7186 54.4966 44.6667 54.5847C44.3385 55.2372 44.1484 55.5899 44.1484 55.5899C44.1484 55.5899 44.1484 55.5899 44.1484 55.6076C43.8893 56.0837 43.6128 56.5246 43.4746 56.5246C43.3709 56.5246 43.1809 55.2549 43.5091 53.5266C44.2002 49.8762 45.8416 44.1978 45.8243 44.0038C45.8243 43.898 46.1353 42.9104 44.7531 42.399C43.4055 41.8876 42.9217 42.7341 42.8008 42.7341C42.6798 42.7341 42.5934 43.0339 42.5934 43.0339C42.5934 43.0339 44.0966 36.65 39.7254 36.65C36.9955 36.65 33.2291 39.7009 31.3631 42.4519C30.1882 43.1044 27.683 44.4976 25.005 45.9965C23.9856 46.5785 22.9317 47.1604 21.9469 47.7071C21.8778 47.6366 21.8087 47.5484 21.7396 47.4779C16.4527 41.7112 6.67363 37.6376 7.08828 29.8958C7.24378 27.0743 8.19404 19.6676 25.8689 10.6738C40.4165 3.35529 51.9924 5.3833 53.9966 9.88021C56.8646 16.2993 47.794 28.2205 32.7626 29.9488C27.0265 30.6012 24.0202 28.344 23.26 27.4975C22.4652 26.6157 22.3443 26.5628 22.0506 26.7392C21.5668 27.0037 21.8778 27.7973 22.0506 28.2558C22.4998 29.455 24.3485 31.5712 27.4757 32.6116C30.2401 33.5286 36.961 34.0401 45.0987 30.8305C54.2039 27.233 61.3222 17.234 59.2316 8.85738C57.1411 0.35735 43.3191 -2.4466 30.2401 2.29719C22.4652 5.11878 14.0338 9.56278 7.96943 15.347C0.764737 22.2247 -0.375574 28.2029 0.0909173 30.7071C1.76683 39.5951 13.7747 45.3793 18.5778 49.6646C18.3359 49.8057 18.1113 49.9291 17.9212 50.0349C15.5197 51.2517 6.36263 56.1366 4.08201 61.3036C1.49039 67.1584 4.49667 71.3555 6.48357 71.9199C12.6516 73.6657 18.9924 70.5267 22.3961 65.342C25.7998 60.1574 25.3851 53.4208 23.8129 50.3347C23.7956 50.2994 23.7783 50.2642 23.7437 50.2289C24.3657 49.8586 25.005 49.4706 25.627 49.1003C26.8537 48.3596 28.0631 47.6718 29.0998 47.1075C28.5123 48.7476 28.0804 50.7051 27.8731 53.5266C27.6139 56.842 28.9443 61.1449 30.6893 62.8379C31.4668 63.5785 32.3825 63.5962 32.9699 63.5962C35.0086 63.5962 35.9243 61.868 36.9437 59.8223C38.1877 57.3181 39.3107 54.4084 39.3107 54.4084C39.3107 54.4084 37.9113 62.2736 41.7123 62.2736C43.0945 62.2736 44.494 60.4395 45.116 59.5049C45.116 59.5225 45.116 59.5225 45.116 59.5225C45.116 59.5225 45.1505 59.4696 45.2196 59.3462C45.3578 59.1169 45.4442 58.9758 45.4442 58.9758C45.4442 58.9758 45.4442 58.9582 45.4442 58.9406C45.9971 57.953 47.2411 55.7134 49.0898 51.9924C51.4741 47.1957 53.772 41.1998 53.772 41.1998C53.772 41.1998 53.9793 42.6635 54.6877 45.0971C55.1023 46.5256 55.9662 48.0951 56.6573 49.6117C56.1044 50.4053 55.7589 50.8461 55.7589 50.8461C55.7589 50.8461 55.7589 50.8461 55.7761 50.8638C55.3269 51.4634 54.8432 52.1158 54.3076 52.7507C52.4243 55.0432 50.1782 57.6708 49.8672 58.4291C49.5044 59.3285 49.5908 59.981 50.2819 60.5101C50.783 60.898 51.6814 60.9509 52.5971 60.898C54.2903 60.7746 55.4824 60.3514 56.0699 60.0868C56.9856 59.7518 58.0568 59.2404 59.0588 58.4821C60.9075 57.0889 62.0306 55.0961 61.9269 52.4685C61.8751 51.0225 61.4086 49.5764 60.8384 48.2185C61.0112 47.9716 61.1667 47.7248 61.3395 47.4779C64.2594 43.122 66.5227 38.343 66.5227 38.343C66.5227 38.343 66.73 39.8067 67.4384 42.2403C67.784 43.4747 68.4923 44.815 69.1143 46.12C66.3672 48.3949 64.674 51.0401 64.0693 52.7683C62.9808 55.9779 63.8274 57.424 65.4342 57.759C66.1599 57.9177 67.1965 57.565 67.9567 57.23C68.9243 56.9125 70.0646 56.3659 71.1531 55.5547C73.0017 54.1615 74.7813 52.2217 74.6777 49.5941C74.6258 48.3949 74.3148 47.2133 73.8829 46.0671C76.2154 45.0795 79.2216 44.5328 83.0572 44.9913C91.2813 45.9789 92.9054 51.2165 92.5944 53.4208C92.2834 55.6252 90.5556 56.8244 89.9855 57.1947C89.4153 57.565 89.2253 57.6885 89.2771 57.953C89.3462 58.341 89.6227 58.3233 90.1064 58.2528C90.7803 58.1294 94.4258 56.4717 94.5813 52.4156C94.8405 47.231 90.0028 41.5702 81.4504 41.6231ZM18.0076 63.4551C15.2778 66.4883 11.4768 67.6346 9.8354 66.6647C8.0731 65.6242 8.7642 61.1449 12.116 57.9354C14.1548 55.9779 16.7809 54.1615 18.526 53.0505C18.9233 52.8036 19.5108 52.4509 20.2191 52.01C20.3401 51.9395 20.4092 51.9042 20.4092 51.9042C20.5474 51.816 20.6856 51.7279 20.8239 51.6397C22.0506 56.2248 20.8757 60.2632 18.0076 63.4551ZM37.8767 49.6646C36.9264 52.0277 34.9395 58.0764 33.7301 57.7414C32.6935 57.4592 32.0542 52.8741 33.5228 48.342C34.2657 46.0671 35.838 43.3513 36.7537 42.2932C38.2395 40.6002 39.8809 40.0359 40.2783 40.7237C40.7793 41.6231 38.4641 48.1833 37.8767 49.6646ZM54.273 57.6708C53.8756 57.8825 53.4955 58.0235 53.3227 57.9177C53.2018 57.8472 53.4955 57.565 53.4955 57.565C53.4955 57.565 55.5515 55.3078 56.3636 54.2849C56.8301 53.6854 57.3829 52.98 57.9704 52.1864C57.9704 52.2569 57.9704 52.3451 57.9704 52.4156C57.9704 55.1138 55.4133 56.9302 54.273 57.6708ZM66.9201 54.7258C66.6264 54.5142 66.6782 53.8088 67.663 51.6044C68.0431 50.7403 68.9416 49.2943 70.4792 47.9011C70.652 48.4654 70.773 49.0121 70.7557 49.5235C70.7384 52.927 68.3541 54.1968 66.9201 54.7258Z" fill="#FDFDFD"/>
</svg>
