<svg width="96" height="75" viewBox="0 0 96 75" fill="none" xmlns="http://www.w3.org/2000/svg">
<path d="M82.0764 42.7366C78.7621 42.7546 75.8817 43.5837 73.4697 44.8093C72.5848 42.9889 71.6998 41.3668 71.5436 40.1773C71.3701 38.7895 71.1619 37.9424 71.3701 36.2843C71.5783 34.6261 72.5153 32.2651 72.498 32.0848C72.4806 31.9046 72.2898 31.0575 70.381 31.0395C68.4723 31.0215 66.8239 31.418 66.633 31.9407C66.4421 32.4633 66.0777 33.6529 65.8348 34.8785C65.5051 36.6808 62.0173 43.1151 60.0218 46.4854C59.3798 45.1697 58.8245 44.0163 58.7031 43.0971C58.5295 41.7093 58.3213 40.8622 58.5295 39.204C58.7378 37.5459 59.6748 35.1849 59.6574 35.0046C59.6401 34.8244 59.4492 33.9773 57.5405 33.9593C55.6317 33.9412 53.9833 34.3378 53.7924 34.8604C53.6015 35.3831 53.3933 36.6087 52.9942 37.7982C52.5951 38.9878 47.9621 49.7296 46.7474 52.5052C46.1228 53.9291 45.5849 55.0645 45.2031 55.8395C45.2031 55.8395 45.1858 55.8936 45.1337 55.9837C44.804 56.6506 44.6131 57.0111 44.6131 57.0111C44.6131 57.0111 44.6131 57.011 44.6131 57.0291C44.3529 57.5157 44.0752 57.9663 43.9364 57.9663C43.8323 57.9663 43.6414 56.6686 43.9711 54.9023C44.6652 51.1715 46.3136 45.368 46.2963 45.1698C46.2963 45.0616 46.6086 44.0523 45.2205 43.5296C43.867 43.007 43.3811 43.8721 43.2597 43.8721C43.1382 43.8721 43.0514 44.1785 43.0514 44.1785C43.0514 44.1785 44.5611 37.654 40.171 37.654C37.4294 37.654 33.6466 40.7721 31.7726 43.5837C30.5926 44.2506 28.0766 45.6744 25.387 47.2064C24.3632 47.8011 23.3047 48.3959 22.3157 48.9546C22.2463 48.8825 22.1769 48.7924 22.1074 48.7203C16.7977 42.8267 6.97639 38.6633 7.39284 30.7511C7.54901 27.8674 8.50338 20.2976 26.2546 11.1057C40.8651 3.62608 52.491 5.69876 54.5038 10.2947C57.3843 16.8552 48.2744 29.0389 33.1781 30.8052C27.4172 31.4721 24.3979 29.1651 23.6344 28.3C22.8362 27.3988 22.7148 27.3447 22.4198 27.525C21.9339 27.7953 22.2463 28.6064 22.4198 29.075C22.8709 30.3005 24.7276 32.4633 27.8683 33.5267C30.6447 34.4639 37.3947 34.9866 45.5675 31.7064C54.7121 28.0296 61.8611 17.8104 59.7615 9.24934C57.6619 0.562119 43.7802 -2.30358 30.6447 2.54468C22.8362 5.42841 14.3684 9.97027 8.2778 15.8819C1.04197 22.911 -0.103271 29.0209 0.365236 31.5802C2.04839 40.6639 14.1081 46.5756 18.932 50.9552C18.6891 51.0994 18.4635 51.2256 18.2726 51.3337C15.8607 52.5773 6.66406 57.5698 4.37358 62.8506C1.77076 68.8343 4.79003 73.1239 6.78552 73.7006C12.9802 75.4849 19.3485 72.2768 22.7668 66.9779C26.1852 61.6791 25.7687 54.7942 24.1897 51.6401C24.1723 51.6041 24.155 51.568 24.1203 51.532C24.745 51.1535 25.387 50.757 26.0117 50.3785C27.2437 49.6215 28.4583 48.9186 29.4994 48.3419C28.9095 50.018 28.4757 52.0186 28.2674 54.9023C28.0072 58.2907 29.3433 62.6884 31.0958 64.4186C31.8767 65.1756 32.7963 65.1936 33.3863 65.1936C35.4339 65.1936 36.3535 63.4273 37.3773 61.3366C38.6267 58.7773 39.7545 55.8035 39.7545 55.8035C39.7545 55.8035 38.349 63.8419 42.1665 63.8419C43.5547 63.8419 44.9602 61.9675 45.5849 61.0122C45.5849 61.0302 45.5849 61.0302 45.5849 61.0302C45.5849 61.0302 45.6196 60.9762 45.689 60.85C45.8278 60.6157 45.9145 60.4715 45.9145 60.4715C45.9145 60.4715 45.9145 60.4535 45.9145 60.4355C46.4698 59.4262 47.7192 57.1372 49.5758 53.3343C51.9704 48.432 54.2783 42.3041 54.2783 42.3041C54.2783 42.3041 54.4865 43.8 55.1979 46.2872C55.6144 47.7471 56.482 49.3512 57.1761 50.9012C56.6208 51.7122 56.2738 52.1628 56.2738 52.1628C56.2738 52.1628 56.2738 52.1628 56.2911 52.1808C55.84 52.7936 55.3541 53.4605 54.8162 54.1093C52.9248 56.4523 50.669 59.1378 50.3567 59.9128C49.9923 60.832 50.0791 61.4989 50.7731 62.0395C51.2764 62.4361 52.1787 62.4901 53.0983 62.4361C54.7988 62.3099 55.9961 61.8773 56.5861 61.607C57.5058 61.2645 58.5816 60.7419 59.588 59.9669C61.4447 58.543 62.5726 56.5064 62.4685 53.8209C62.4164 52.343 61.9479 50.8651 61.3753 49.4773C61.5488 49.225 61.705 48.9727 61.8785 48.7203C64.811 44.2686 67.0841 39.3843 67.0841 39.3843C67.0841 39.3843 67.2924 40.8802 68.0038 43.3674C68.3508 44.6291 69.0623 45.9988 69.687 47.3325C66.928 49.6576 65.2275 52.361 64.6201 54.1273C63.5269 57.4076 64.3772 58.8855 65.991 59.2279C66.7197 59.3901 67.7609 59.0297 68.5244 58.6872C69.4961 58.3628 70.6413 57.8041 71.7345 56.975C73.5912 55.5512 75.3784 53.5686 75.2743 50.8831C75.2223 49.6576 74.9099 48.45 74.4761 47.2785C76.8187 46.2692 79.8379 45.7105 83.6901 46.1791C91.9497 47.1884 93.5808 52.5413 93.2685 54.7942C92.9562 57.0471 91.2209 58.2727 90.6483 58.6512C90.0757 59.0297 89.8848 59.1558 89.9369 59.4262C90.0063 59.8227 90.2839 59.8047 90.7698 59.7326C91.4465 59.6064 95.1078 57.9122 95.264 53.7669C95.5243 48.468 90.6657 42.6825 82.0764 42.7366ZM18.3594 65.0494C15.6177 68.1494 11.8003 69.321 10.1518 68.3297C8.38192 67.2663 9.076 62.6884 12.4423 59.4081C14.4899 57.4076 17.1274 55.5512 18.8799 54.4157C19.279 54.1634 19.869 53.8029 20.5805 53.3523C20.7019 53.2802 20.7713 53.2442 20.7713 53.2442C20.9101 53.1541 21.049 53.0639 21.1878 52.9738C22.4198 57.6599 21.2398 61.7872 18.3594 65.0494ZM38.3143 50.9552C37.36 53.3703 35.3645 59.5523 34.1498 59.2099C33.1087 58.9215 32.4667 54.2355 33.9416 49.6035C34.6877 47.2785 36.2668 44.5029 37.1864 43.4215C38.6787 41.6913 40.3272 41.1145 40.7263 41.8174C41.2295 42.7366 38.9043 49.4413 38.3143 50.9552ZM54.7815 59.1378C54.3824 59.3541 54.0006 59.4983 53.8271 59.3901C53.7057 59.318 54.0006 59.0297 54.0006 59.0297C54.0006 59.0297 56.0655 56.7227 56.8811 55.6773C57.3496 55.0645 57.9049 54.3436 58.4948 53.5326C58.4948 53.6046 58.4948 53.6948 58.4948 53.7669C58.4948 56.5244 55.9267 58.3808 54.7815 59.1378ZM67.4832 56.1279C67.1882 55.9116 67.2403 55.1907 68.2294 52.9378C68.6111 52.0546 69.5134 50.5767 71.0578 49.1529C71.2313 49.7296 71.3528 50.2884 71.3354 50.811C71.3181 54.2895 68.9235 55.5872 67.4832 56.1279Z" fill="#011638"/>
</svg>
