<svg width="64" height="60" viewBox="0 0 64 60" fill="none" xmlns="http://www.w3.org/2000/svg">
<g clip-path="url(#clip0_379_19)">
<path d="M0.904297 29.9V0H63.6543V59.8H0.904297" fill="#011638"/>
<path d="M14.6624 30.0047V32.4415H22.8199V54.5675H28.6085V32.4415H36.766V30.0495C36.766 28.704 36.766 27.6127 36.7033 27.5828C36.7033 27.5379 31.7304 27.523 25.6907 27.523L14.7094 27.5678V30.0196L14.6624 30.0047V30.0047ZM51.324 27.508C52.9242 27.8668 54.1478 28.5545 55.2459 29.6459C55.8264 30.2439 56.6892 31.2904 56.7519 31.5595C56.7519 31.6492 54.038 33.3983 52.3908 34.3701C52.328 34.4149 52.077 34.1608 51.826 33.7721C51.0103 32.6658 50.1789 32.1874 48.8768 32.0977C46.9943 31.9781 45.7393 32.9199 45.7393 34.4897C45.7393 34.9681 45.8334 35.2372 46.0217 35.6259C46.4452 36.4481 47.2296 36.9415 49.6612 37.9581C54.1478 39.7969 56.093 41.0079 57.2696 42.7421C58.603 44.6856 58.9011 47.7354 58.0069 50.0227C57.0029 52.5194 54.5557 54.2087 51.0574 54.7619C49.9592 54.9413 47.4492 54.9114 46.2727 54.717C43.7627 54.2685 41.3625 53.0725 39.8879 51.5327C39.3074 50.9347 38.1936 49.335 38.2564 49.2304L38.8525 48.8716L41.2056 47.5709L42.9783 46.5842L43.3862 47.1075C43.9039 47.8849 45.0647 48.9314 45.7393 49.2902C47.7787 50.2918 50.5083 50.1573 51.8574 48.9912C52.4379 48.4829 52.6889 47.9447 52.6889 47.1972C52.6889 46.5095 52.579 46.1955 52.2182 45.6723C51.7162 45.0145 50.7122 44.4763 47.8885 43.2803C44.6412 41.9647 43.2607 41.1275 41.9743 39.8418C41.237 39.0644 40.5624 37.8534 40.2487 36.8518C40.0134 35.9847 39.9349 33.8618 40.1545 33.0096C40.8291 30.0196 43.1979 27.9266 46.5864 27.3286C47.6845 27.1193 50.273 27.209 51.3554 27.4781L51.324 27.508V27.508Z" fill="white"/>
</g>
<defs>
<clipPath id="clip0_379_19">
<rect width="62.75" height="59.8" fill="white" transform="translate(0.904297)"/>
</clipPath>
</defs>
</svg>
