<svg width="63" height="60" viewBox="0 0 63 60" fill="none" xmlns="http://www.w3.org/2000/svg">
<path d="M0 30V0H63V60H0" fill="#FDFDFD"/>
<path d="M13.8127 30.105V32.55H22.0027V54.75H27.8145V32.55H36.0045V30.15C36.0045 28.8 36.0045 27.705 35.9415 27.675C35.9415 27.63 30.9487 27.615 24.885 27.615L13.86 27.66V30.12L13.8127 30.105ZM50.6205 27.6C52.227 27.96 53.4555 28.65 54.558 29.745C55.1407 30.345 56.007 31.395 56.07 31.665C56.07 31.755 53.3452 33.51 51.6915 34.485C51.6285 34.53 51.3765 34.275 51.1245 33.885C50.3055 32.775 49.4707 32.295 48.1635 32.205C46.2735 32.085 45.0135 33.03 45.0135 34.605C45.0135 35.085 45.108 35.355 45.297 35.745C45.7222 36.57 46.5097 37.065 48.951 38.085C53.4555 39.93 55.4085 41.145 56.5897 42.885C57.9285 44.835 58.2277 47.895 57.33 50.19C56.322 52.695 53.865 54.39 50.3527 54.945C49.2502 55.125 46.7302 55.095 45.549 54.9C43.029 54.45 40.6192 53.25 39.1387 51.705C38.556 51.105 37.4377 49.5 37.5007 49.395L38.0992 49.035L40.4617 47.73L42.2415 46.74L42.651 47.265C43.1707 48.045 44.3362 49.095 45.0135 49.455C47.061 50.46 49.8015 50.325 51.156 49.155C51.7387 48.645 51.9907 48.105 51.9907 47.355C51.9907 46.665 51.8805 46.35 51.5182 45.825C51.0142 45.165 50.0062 44.625 47.1712 43.425C43.911 42.105 42.525 41.265 41.2335 39.975C40.4932 39.195 39.816 37.98 39.501 36.975C39.2647 36.105 39.186 33.975 39.4065 33.12C40.0837 30.12 42.462 28.02 45.864 27.42C46.9665 27.21 49.5652 27.3 50.652 27.57L50.6205 27.6Z" fill="#2D2D73"/>
</svg>
